<?xml version="1.0" encoding="UTF-8" standalone="no"?>
<!DOCTYPE svg PUBLIC "-//W3C//DTD SVG 1.1//EN"
 "http://www.w3.org/Graphics/SVG/1.1/DTD/svg11.dtd">
<!-- Generated by graphviz version 2.43.0 (0)
 -->
<!-- Title: squid/src/security Pages: 1 -->
<svg width="1007pt" height="149pt"
 viewBox="0.00 0.00 1006.50 149.00" xmlns="http://www.w3.org/2000/svg" xmlns:xlink="http://www.w3.org/1999/xlink">
<g id="graph0" class="graph" transform="scale(1 1) rotate(0) translate(4 145)">
<title>squid/src/security</title>
<g id="clust1" class="cluster">
<title>clusterdir_27a06220d184fcc3bd2c56b7794ae45b</title>
<g id="a_clust1"><a xlink:href="dir_27a06220d184fcc3bd2c56b7794ae45b.html" target="_top" xlink:title="src">
<polygon fill="#edf0f7" stroke="#7f7f7f" stroke-dasharray="5,2" points="8,-8 8,-133 865,-133 865,-8 8,-8"/>
<text text-anchor="middle" x="436.5" y="-121" font-family="Helvetica,sans-Serif" font-size="10.00">src</text>
</a>
</g>
</g>
<g id="clust2" class="cluster">
<title>clusterdir_81f981ce9e735fdd4ac8452d01660f4f</title>
<g id="a_clust2"><a xlink:href="dir_81f981ce9e735fdd4ac8452d01660f4f.html" target="_top">
<polygon fill="#edf0f7" stroke="#404040" stroke-width="2" points="512,-55 512,-106 753,-106 753,-55 512,-55"/>
</a>
</g>
</g>
<g id="clust3" class="cluster">
<title>clusterdir_e0e34dd4874852f5e77742c4d16751de</title>
<g id="a_clust3"><a xlink:href="dir_e0e34dd4874852f5e77742c4d16751de.html" target="_top">
<polygon fill="#eaeef6" stroke="#404040" points="586,-63 586,-98 745,-98 745,-63 586,-63"/>
</a>
</g>
</g>
<!-- dir_008e24b6ef3ec489277636e4133de850 -->
<g id="node1" class="node">
<title>dir_008e24b6ef3ec489277636e4133de850</title>
<g id="a_node1"><a xlink:href="dir_008e24b6ef3ec489277636e4133de850.html" target="_top" xlink:title="sbuf">
<polygon fill="#eaeef6" stroke="#404040" points="628,-35 590,-35 590,-16 628,-16 628,-35"/>
<text text-anchor="middle" x="609" y="-23" font-family="Helvetica,sans-Serif" font-size="10.00">sbuf</text>
</a>
</g>
</g>
<!-- dir_1ad05120b44f4919e1d77d58275d4190 -->
<g id="node2" class="node">
<title>dir_1ad05120b44f4919e1d77d58275d4190</title>
<g id="a_node2"><a xlink:href="dir_1ad05120b44f4919e1d77d58275d4190.html" target="_top" xlink:title="html">
<polygon fill="#eaeef6" stroke="#404040" points="164.5,-35 125.5,-35 125.5,-16 164.5,-16 164.5,-35"/>
<text text-anchor="middle" x="145" y="-23" font-family="Helvetica,sans-Serif" font-size="10.00">html</text>
</a>
</g>
</g>
<!-- dir_2926faa6d81a8066318a65bfc336f67b -->
<g id="node3" class="node">
<title>dir_2926faa6d81a8066318a65bfc336f67b</title>
<g id="a_node3"><a xlink:href="dir_2926faa6d81a8066318a65bfc336f67b.html" target="_top" xlink:title="acl">
<polygon fill="#eaeef6" stroke="red" points="506.5,-35 475.5,-35 475.5,-16 506.5,-16 506.5,-35"/>
<text text-anchor="middle" x="491" y="-23" font-family="Helvetica,sans-Serif" font-size="10.00">acl</text>
</a>
</g>
</g>
<!-- dir_2e21134419e2db2c9a4ff64f0ab0ad8d -->
<g id="node4" class="node">
<title>dir_2e21134419e2db2c9a4ff64f0ab0ad8d</title>
<g id="a_node4"><a xlink:href="dir_2e21134419e2db2c9a4ff64f0ab0ad8d.html" target="_top" xlink:title="time">
<polygon fill="#eaeef6" stroke="#404040" points="856.5,-35 817.5,-35 817.5,-16 856.5,-16 856.5,-35"/>
<text text-anchor="middle" x="837" y="-23" font-family="Helvetica,sans-Serif" font-size="10.00">time</text>
</a>
</g>
</g>
<!-- dir_34d8c116a98ee54e3e383a09eadea7c5 -->
<g id="node5" class="node">
<title>dir_34d8c116a98ee54e3e383a09eadea7c5</title>
<g id="a_node5"><a xlink:href="dir_34d8c116a98ee54e3e383a09eadea7c5.html" target="_top" xlink:title="ssl">
<polygon fill="#eaeef6" stroke="#404040" points="676,-35 646,-35 646,-16 676,-16 676,-35"/>
<text text-anchor="middle" x="661" y="-23" font-family="Helvetica,sans-Serif" font-size="10.00">ssl</text>
</a>
</g>
</g>
<!-- dir_46e48f159c6fdd75bd63e946ebf1533e -->
<g id="node6" class="node">
<title>dir_46e48f159c6fdd75bd63e946ebf1533e</title>
<g id="a_node6"><a xlink:href="dir_46e48f159c6fdd75bd63e946ebf1533e.html" target="_top" xlink:title="http">
<polygon fill="#eaeef6" stroke="red" points="457,-35 421,-35 421,-16 457,-16 457,-35"/>
<text text-anchor="middle" x="439" y="-23" font-family="Helvetica,sans-Serif" font-size="10.00">http</text>
</a>
</g>
</g>
<!-- dir_49892635ae30f06b98770bacb35a9385 -->
<g id="node7" class="node">
<title>dir_49892635ae30f06b98770bacb35a9385</title>
<g id="a_node7"><a xlink:href="dir_49892635ae30f06b98770bacb35a9385.html" target="_top" xlink:title="base">
<polygon fill="#eaeef6" stroke="#404040" points="734,-35 694,-35 694,-16 734,-16 734,-35"/>
<text text-anchor="middle" x="714" y="-23" font-family="Helvetica,sans-Serif" font-size="10.00">base</text>
</a>
</g>
</g>
<!-- dir_55b0ad995e1786cdb535c62f30120969 -->
<g id="node8" class="node">
<title>dir_55b0ad995e1786cdb535c62f30120969</title>
<g id="a_node8"><a xlink:href="dir_55b0ad995e1786cdb535c62f30120969.html" target="_top" xlink:title="log">
<polygon fill="#eaeef6" stroke="red" points="48,-35 16,-35 16,-16 48,-16 48,-35"/>
<text text-anchor="middle" x="32" y="-23" font-family="Helvetica,sans-Serif" font-size="10.00">log</text>
</a>
</g>
</g>
<!-- dir_6b7615169cf4177f323b6deda6409b41 -->
<g id="node9" class="node">
<title>dir_6b7615169cf4177f323b6deda6409b41</title>
<g id="a_node9"><a xlink:href="dir_6b7615169cf4177f323b6deda6409b41.html" target="_top" xlink:title="anyp">
<polygon fill="#eaeef6" stroke="#404040" points="107.5,-35 66.5,-35 66.5,-16 107.5,-16 107.5,-35"/>
<text text-anchor="middle" x="87" y="-23" font-family="Helvetica,sans-Serif" font-size="10.00">anyp</text>
</a>
</g>
</g>
<!-- dir_974c35a9e5da76de066be5bc9a9208f0 -->
<g id="node10" class="node">
<title>dir_974c35a9e5da76de066be5bc9a9208f0</title>
<g id="a_node10"><a xlink:href="dir_974c35a9e5da76de066be5bc9a9208f0.html" target="_top" xlink:title="debug">
<polygon fill="#eaeef6" stroke="#404040" points="571.5,-35 524.5,-35 524.5,-16 571.5,-16 571.5,-35"/>
<text text-anchor="middle" x="548" y="-23" font-family="Helvetica,sans-Serif" font-size="10.00">debug</text>
</a>
</g>
</g>
<!-- dir_c63f27843881769261e9f0e02d97c751 -->
<g id="node11" class="node">
<title>dir_c63f27843881769261e9f0e02d97c751</title>
<g id="a_node11"><a xlink:href="dir_c63f27843881769261e9f0e02d97c751.html" target="_top" xlink:title="error">
<polygon fill="#eaeef6" stroke="#404040" points="223,-35 183,-35 183,-16 223,-16 223,-35"/>
<text text-anchor="middle" x="203" y="-23" font-family="Helvetica,sans-Serif" font-size="10.00">error</text>
</a>
</g>
</g>
<!-- dir_c8beb12667e670be2c1fb7f9efa8bac3 -->
<g id="node12" class="node">
<title>dir_c8beb12667e670be2c1fb7f9efa8bac3</title>
<g id="a_node12"><a xlink:href="dir_c8beb12667e670be2c1fb7f9efa8bac3.html" target="_top" xlink:title="comm">
<polygon fill="#eaeef6" stroke="#404040" points="288.5,-35 241.5,-35 241.5,-16 288.5,-16 288.5,-35"/>
<text text-anchor="middle" x="265" y="-23" font-family="Helvetica,sans-Serif" font-size="10.00">comm</text>
</a>
</g>
</g>
<!-- dir_cce7e4eda75c585c784c6ea3659dc5d2 -->
<g id="node13" class="node">
<title>dir_cce7e4eda75c585c784c6ea3659dc5d2</title>
<g id="a_node13"><a xlink:href="dir_cce7e4eda75c585c784c6ea3659dc5d2.html" target="_top" xlink:title="helper">
<polygon fill="#eaeef6" stroke="#404040" points="799.5,-35 752.5,-35 752.5,-16 799.5,-16 799.5,-35"/>
<text text-anchor="middle" x="776" y="-23" font-family="Helvetica,sans-Serif" font-size="10.00">helper</text>
</a>
</g>
</g>
<!-- dir_dd4f5294299cd91ca8f126727715fb74 -->
<g id="node14" class="node">
<title>dir_dd4f5294299cd91ca8f126727715fb74</title>
<g id="a_node14"><a xlink:href="dir_dd4f5294299cd91ca8f126727715fb74.html" target="_top" xlink:title="ipc">
<polygon fill="#eaeef6" stroke="red" points="337.5,-35 306.5,-35 306.5,-16 337.5,-16 337.5,-35"/>
<text text-anchor="middle" x="322" y="-23" font-family="Helvetica,sans-Serif" font-size="10.00">ipc</text>
</a>
</g>
</g>
<!-- dir_f9425c2010de9e0bfd045f1ea46112c8 -->
<g id="node15" class="node">
<title>dir_f9425c2010de9e0bfd045f1ea46112c8</title>
<g id="a_node15"><a xlink:href="dir_f9425c2010de9e0bfd045f1ea46112c8.html" target="_top" xlink:title="parser">
<polygon fill="#eaeef6" stroke="#404040" points="402.5,-35 355.5,-35 355.5,-16 402.5,-16 402.5,-35"/>
<text text-anchor="middle" x="379" y="-23" font-family="Helvetica,sans-Serif" font-size="10.00">parser</text>
</a>
</g>
</g>
<!-- dir_81f981ce9e735fdd4ac8452d01660f4f -->
<g id="node16" class="node">
<title>dir_81f981ce9e735fdd4ac8452d01660f4f</title>
<text text-anchor="middle" x="548" y="-78" font-family="Helvetica,sans-Serif" font-size="10.00">security</text>
</g>
<!-- dir_81f981ce9e735fdd4ac8452d01660f4f&#45;&gt;dir_008e24b6ef3ec489277636e4133de850 -->
<g id="edge1" class="edge">
<title>dir_81f981ce9e735fdd4ac8452d01660f4f&#45;&gt;dir_008e24b6ef3ec489277636e4133de850</title>
<g id="a_edge1"><a xlink:href="dir_000079_000077.html" target="_top">
<path fill="none" stroke="#63b8ff" d="M557.8,-70.98C566.82,-63.15 580.41,-51.34 591.32,-41.86"/>
<polygon fill="#63b8ff" stroke="#63b8ff" points="593.77,-44.37 599.02,-35.17 589.18,-39.09 593.77,-44.37"/>
</a>
</g>
<g id="a_edge1&#45;headlabel"><a xlink:href="dir_000079_000077.html" target="_top" xlink:title="10">
<text text-anchor="middle" x="592.92" y="-46.37" font-family="Helvetica,sans-Serif" font-size="10.00" fill="#63b8ff">10</text>
</a>
</g>
</g>
<!-- dir_81f981ce9e735fdd4ac8452d01660f4f&#45;&gt;dir_1ad05120b44f4919e1d77d58275d4190 -->
<g id="edge2" class="edge">
<title>dir_81f981ce9e735fdd4ac8452d01660f4f&#45;&gt;dir_1ad05120b44f4919e1d77d58275d4190</title>
<g id="a_edge2"><a xlink:href="dir_000079_000041.html" target="_top">
<path fill="none" stroke="#63b8ff" d="M519.59,-77.74C458.3,-73.61 309.01,-61.68 174.61,-34.76"/>
<polygon fill="#63b8ff" stroke="#63b8ff" points="175.04,-31.28 164.54,-32.71 173.64,-38.13 175.04,-31.28"/>
</a>
</g>
<g id="a_edge2&#45;headlabel"><a xlink:href="dir_000079_000041.html" target="_top" xlink:title="1">
<text text-anchor="middle" x="179.13" y="-26.71" font-family="Helvetica,sans-Serif" font-size="10.00" fill="#63b8ff">1</text>
</a>
</g>
</g>
<!-- dir_81f981ce9e735fdd4ac8452d01660f4f&#45;&gt;dir_2926faa6d81a8066318a65bfc336f67b -->
<g id="edge3" class="edge">
<title>dir_81f981ce9e735fdd4ac8452d01660f4f&#45;&gt;dir_2926faa6d81a8066318a65bfc336f67b</title>
<g id="a_edge3"><a xlink:href="dir_000079_000000.html" target="_top">
<path fill="none" stroke="#63b8ff" d="M538.84,-70.98C530.5,-63.23 517.97,-51.58 507.82,-42.14"/>
<polygon fill="#63b8ff" stroke="#63b8ff" points="510.03,-39.42 500.32,-35.17 505.26,-44.54 510.03,-39.42"/>
</a>
</g>
<g id="a_edge3&#45;headlabel"><a xlink:href="dir_000079_000000.html" target="_top" xlink:title="9">
<text text-anchor="middle" x="514.6" y="-37.28" font-family="Helvetica,sans-Serif" font-size="10.00" fill="#63b8ff">9</text>
</a>
</g>
</g>
<!-- dir_81f981ce9e735fdd4ac8452d01660f4f&#45;&gt;dir_34d8c116a98ee54e3e383a09eadea7c5 -->
<g id="edge4" class="edge">
<title>dir_81f981ce9e735fdd4ac8452d01660f4f&#45;&gt;dir_34d8c116a98ee54e3e383a09eadea7c5</title>
<g id="a_edge4"><a xlink:href="dir_000079_000087.html" target="_top">
<path fill="none" stroke="#63b8ff" d="M558.22,-70.98C564.73,-65.85 573.51,-59.48 582,-55 583.28,-54.32 613.6,-43.44 636.3,-35.32"/>
<polygon fill="#63b8ff" stroke="#63b8ff" points="637.51,-38.6 645.75,-31.94 635.16,-32.01 637.51,-38.6"/>
</a>
</g>
<g id="a_edge4&#45;headlabel"><a xlink:href="dir_000079_000087.html" target="_top" xlink:title="19">
<text text-anchor="middle" x="635.08" y="-39.99" font-family="Helvetica,sans-Serif" font-size="10.00" fill="#63b8ff">19</text>
</a>
</g>
</g>
<!-- dir_81f981ce9e735fdd4ac8452d01660f4f&#45;&gt;dir_46e48f159c6fdd75bd63e946ebf1533e -->
<g id="edge5" class="edge">
<title>dir_81f981ce9e735fdd4ac8452d01660f4f&#45;&gt;dir_46e48f159c6fdd75bd63e946ebf1533e</title>
<g id="a_edge5"><a xlink:href="dir_000079_000042.html" target="_top">
<path fill="none" stroke="#63b8ff" d="M530.49,-70.98C513.03,-62.5 485.99,-49.35 465.83,-39.54"/>
<polygon fill="#63b8ff" stroke="#63b8ff" points="467.36,-36.4 456.83,-35.17 464.29,-42.69 467.36,-36.4"/>
</a>
</g>
<g id="a_edge5&#45;headlabel"><a xlink:href="dir_000079_000042.html" target="_top" xlink:title="4">
<text text-anchor="middle" x="471.83" y="-32.91" font-family="Helvetica,sans-Serif" font-size="10.00" fill="#63b8ff">4</text>
</a>
</g>
</g>
<!-- dir_81f981ce9e735fdd4ac8452d01660f4f&#45;&gt;dir_49892635ae30f06b98770bacb35a9385 -->
<g id="edge6" class="edge">
<title>dir_81f981ce9e735fdd4ac8452d01660f4f&#45;&gt;dir_49892635ae30f06b98770bacb35a9385</title>
<g id="a_edge6"><a xlink:href="dir_000079_000007.html" target="_top">
<path fill="none" stroke="#63b8ff" d="M557.42,-70.99C563.89,-65.6 572.92,-58.93 582,-55 622.04,-37.69 637.65,-44.9 683.79,-34.99"/>
<polygon fill="#63b8ff" stroke="#63b8ff" points="684.83,-38.35 693.78,-32.69 683.25,-31.53 684.83,-38.35"/>
</a>
</g>
<g id="a_edge6&#45;headlabel"><a xlink:href="dir_000079_000007.html" target="_top" xlink:title="30">
<text text-anchor="middle" x="681.96" y="-39.42" font-family="Helvetica,sans-Serif" font-size="10.00" fill="#63b8ff">30</text>
</a>
</g>
</g>
<!-- dir_81f981ce9e735fdd4ac8452d01660f4f&#45;&gt;dir_55b0ad995e1786cdb535c62f30120969 -->
<g id="edge7" class="edge">
<title>dir_81f981ce9e735fdd4ac8452d01660f4f&#45;&gt;dir_55b0ad995e1786cdb535c62f30120969</title>
<g id="a_edge7"><a xlink:href="dir_000079_000056.html" target="_top">
<path fill="none" stroke="#63b8ff" d="M519.78,-79.15C444.15,-77.74 230.97,-70.65 58,-35 57.9,-34.98 57.8,-34.96 57.69,-34.94"/>
<polygon fill="#63b8ff" stroke="#63b8ff" points="58.64,-31.57 48.07,-32.38 56.84,-38.33 58.64,-31.57"/>
</a>
</g>
<g id="a_edge7&#45;headlabel"><a xlink:href="dir_000079_000056.html" target="_top" xlink:title="3">
<text text-anchor="middle" x="62.84" y="-27.25" font-family="Helvetica,sans-Serif" font-size="10.00" fill="#63b8ff">3</text>
</a>
</g>
</g>
<!-- dir_81f981ce9e735fdd4ac8452d01660f4f&#45;&gt;dir_6b7615169cf4177f323b6deda6409b41 -->
<g id="edge9" class="edge">
<title>dir_81f981ce9e735fdd4ac8452d01660f4f&#45;&gt;dir_6b7615169cf4177f323b6deda6409b41</title>
<g id="a_edge9"><a xlink:href="dir_000079_000004.html" target="_top">
<path fill="none" stroke="#63b8ff" d="M519.77,-78.28C451.98,-74.99 274.63,-64.25 117.39,-34.71"/>
<polygon fill="#63b8ff" stroke="#63b8ff" points="118.02,-31.27 107.54,-32.83 116.71,-38.14 118.02,-31.27"/>
</a>
</g>
<g id="a_edge9&#45;headlabel"><a xlink:href="dir_000079_000004.html" target="_top" xlink:title="7">
<text text-anchor="middle" x="122.09" y="-26.65" font-family="Helvetica,sans-Serif" font-size="10.00" fill="#63b8ff">7</text>
</a>
</g>
</g>
<!-- dir_81f981ce9e735fdd4ac8452d01660f4f&#45;&gt;dir_974c35a9e5da76de066be5bc9a9208f0 -->
<g id="edge10" class="edge">
<title>dir_81f981ce9e735fdd4ac8452d01660f4f&#45;&gt;dir_974c35a9e5da76de066be5bc9a9208f0</title>
<g id="a_edge10"><a xlink:href="dir_000079_000014.html" target="_top">
<path fill="none" stroke="#63b8ff" d="M548,-70.75C548,-63.8 548,-53.85 548,-45.13"/>
<polygon fill="#63b8ff" stroke="#63b8ff" points="551.5,-45.09 548,-35.09 544.5,-45.09 551.5,-45.09"/>
</a>
</g>
<g id="a_edge10&#45;headlabel"><a xlink:href="dir_000079_000014.html" target="_top" xlink:title="4">
<text text-anchor="middle" x="554.34" y="-46.18" font-family="Helvetica,sans-Serif" font-size="10.00" fill="#63b8ff">4</text>
</a>
</g>
</g>
<!-- dir_81f981ce9e735fdd4ac8452d01660f4f&#45;&gt;dir_c63f27843881769261e9f0e02d97c751 -->
<g id="edge11" class="edge">
<title>dir_81f981ce9e735fdd4ac8452d01660f4f&#45;&gt;dir_c63f27843881769261e9f0e02d97c751</title>
<g id="a_edge11"><a xlink:href="dir_000079_000025.html" target="_top">
<path fill="none" stroke="#63b8ff" d="M519.97,-76.83C464.68,-71.28 337.83,-57.15 233,-35 232.9,-34.98 232.8,-34.96 232.7,-34.94"/>
<polygon fill="#63b8ff" stroke="#63b8ff" points="233.78,-31.6 223.24,-32.64 232.13,-38.4 233.78,-31.6"/>
</a>
</g>
<g id="a_edge11&#45;headlabel"><a xlink:href="dir_000079_000025.html" target="_top" xlink:title="4">
<text text-anchor="middle" x="237.95" y="-27.19" font-family="Helvetica,sans-Serif" font-size="10.00" fill="#63b8ff">4</text>
</a>
</g>
</g>
<!-- dir_81f981ce9e735fdd4ac8452d01660f4f&#45;&gt;dir_c8beb12667e670be2c1fb7f9efa8bac3 -->
<g id="edge12" class="edge">
<title>dir_81f981ce9e735fdd4ac8452d01660f4f&#45;&gt;dir_c8beb12667e670be2c1fb7f9efa8bac3</title>
<g id="a_edge12"><a xlink:href="dir_000079_000012.html" target="_top">
<path fill="none" stroke="#63b8ff" d="M519.74,-75.19C475,-68.21 384.92,-53.52 298.69,-35"/>
<polygon fill="#63b8ff" stroke="#63b8ff" points="299.26,-31.54 288.74,-32.85 297.77,-38.39 299.26,-31.54"/>
</a>
</g>
<g id="a_edge12&#45;headlabel"><a xlink:href="dir_000079_000012.html" target="_top" xlink:title="7">
<text text-anchor="middle" x="303.37" y="-27.03" font-family="Helvetica,sans-Serif" font-size="10.00" fill="#63b8ff">7</text>
</a>
</g>
</g>
<!-- dir_81f981ce9e735fdd4ac8452d01660f4f&#45;&gt;dir_dd4f5294299cd91ca8f126727715fb74 -->
<g id="edge14" class="edge">
<title>dir_81f981ce9e735fdd4ac8452d01660f4f&#45;&gt;dir_dd4f5294299cd91ca8f126727715fb74</title>
<g id="a_edge14"><a xlink:href="dir_000079_000047.html" target="_top">
<path fill="none" stroke="#63b8ff" d="M519.79,-74.27C482.52,-67.14 414.67,-53.41 347.43,-34.85"/>
<polygon fill="#63b8ff" stroke="#63b8ff" points="348.09,-31.4 337.52,-32.07 346.21,-38.14 348.09,-31.4"/>
</a>
</g>
<g id="a_edge14&#45;headlabel"><a xlink:href="dir_000079_000047.html" target="_top" xlink:title="1">
<text text-anchor="middle" x="352.32" y="-27.13" font-family="Helvetica,sans-Serif" font-size="10.00" fill="#63b8ff">1</text>
</a>
</g>
</g>
<!-- dir_81f981ce9e735fdd4ac8452d01660f4f&#45;&gt;dir_f9425c2010de9e0bfd045f1ea46112c8 -->
<g id="edge15" class="edge">
<title>dir_81f981ce9e735fdd4ac8452d01660f4f&#45;&gt;dir_f9425c2010de9e0bfd045f1ea46112c8</title>
<g id="a_edge15"><a xlink:href="dir_000079_000070.html" target="_top">
<path fill="none" stroke="#63b8ff" d="M520.85,-70.98C491.3,-61.72 444.03,-46.89 412.27,-36.93"/>
<polygon fill="#63b8ff" stroke="#63b8ff" points="413.13,-33.54 402.54,-33.88 411.04,-40.22 413.13,-33.54"/>
</a>
</g>
<g id="a_edge15&#45;headlabel"><a xlink:href="dir_000079_000070.html" target="_top" xlink:title="2">
<text text-anchor="middle" x="417.41" y="-29.4" font-family="Helvetica,sans-Serif" font-size="10.00" fill="#63b8ff">2</text>
</a>
</g>
</g>
<!-- dir_669c8d98ab0a41d3f42c455aff8a0105 -->
<g id="node19" class="node">
<title>dir_669c8d98ab0a41d3f42c455aff8a0105</title>
<g id="a_node19"><a xlink:href="dir_669c8d98ab0a41d3f42c455aff8a0105.html" target="_top" xlink:title="compat">
<polygon fill="#edf0f7" stroke="red" stroke-dasharray="5,2" points="998.5,-35 945.5,-35 945.5,-16 998.5,-16 998.5,-35"/>
<text text-anchor="middle" x="972" y="-23" font-family="Helvetica,sans-Serif" font-size="10.00">compat</text>
</a>
</g>
</g>
<!-- dir_81f981ce9e735fdd4ac8452d01660f4f&#45;&gt;dir_669c8d98ab0a41d3f42c455aff8a0105 -->
<g id="edge8" class="edge">
<title>dir_81f981ce9e735fdd4ac8452d01660f4f&#45;&gt;dir_669c8d98ab0a41d3f42c455aff8a0105</title>
<g id="a_edge8"><a xlink:href="dir_000079_000013.html" target="_top">
<path fill="none" stroke="#63b8ff" d="M556.98,-70.82C563.4,-65.21 572.54,-58.35 582,-55 653.51,-29.67 843.23,-45.07 935.18,-34.66"/>
<polygon fill="#63b8ff" stroke="#63b8ff" points="935.9,-38.1 945.36,-33.34 935,-31.16 935.9,-38.1"/>
</a>
</g>
<g id="a_edge8&#45;headlabel"><a xlink:href="dir_000079_000013.html" target="_top" xlink:title="7">
<text text-anchor="middle" x="932.7" y="-38.88" font-family="Helvetica,sans-Serif" font-size="10.00" fill="#63b8ff">7</text>
</a>
</g>
</g>
<!-- dir_cba44140afe74f820e83d8e084616738 -->
<g id="node20" class="node">
<title>dir_cba44140afe74f820e83d8e084616738</title>
<g id="a_node20"><a xlink:href="dir_cba44140afe74f820e83d8e084616738.html" target="_top" xlink:title="include">
<polygon fill="#edf0f7" stroke="#7f7f7f" points="927,-35 875,-35 875,-16 927,-16 927,-35"/>
<text text-anchor="middle" x="901" y="-23" font-family="Helvetica,sans-Serif" font-size="10.00">include</text>
</a>
</g>
</g>
<!-- dir_81f981ce9e735fdd4ac8452d01660f4f&#45;&gt;dir_cba44140afe74f820e83d8e084616738 -->
<g id="edge13" class="edge">
<title>dir_81f981ce9e735fdd4ac8452d01660f4f&#45;&gt;dir_cba44140afe74f820e83d8e084616738</title>
<g id="a_edge13"><a xlink:href="dir_000079_000045.html" target="_top">
<path fill="none" stroke="#63b8ff" d="M556.99,-70.86C563.42,-65.27 572.56,-58.41 582,-55 699.19,-12.62 740.75,-53.75 865.01,-35.42"/>
<polygon fill="#63b8ff" stroke="#63b8ff" points="865.56,-38.88 874.89,-33.87 864.47,-31.97 865.56,-38.88"/>
</a>
</g>
<g id="a_edge13&#45;headlabel"><a xlink:href="dir_000079_000045.html" target="_top" xlink:title="18">
<text text-anchor="middle" x="862.45" y="-39.74" font-family="Helvetica,sans-Serif" font-size="10.00" fill="#63b8ff">18</text>
</a>
</g>
</g>
<!-- dir_e0e34dd4874852f5e77742c4d16751de -->
<g id="node17" class="node">
<title>dir_e0e34dd4874852f5e77742c4d16751de</title>
<text text-anchor="middle" x="691" y="-78" font-family="Helvetica,sans-Serif" font-size="10.00">cert_generators</text>
</g>
<!-- dir_a9c6f7b80249434a4cb63ba05bc9d935 -->
<g id="node18" class="node">
<title>dir_a9c6f7b80249434a4cb63ba05bc9d935</title>
<g id="a_node18"><a xlink:href="dir_a9c6f7b80249434a4cb63ba05bc9d935.html" target="_top" xlink:title="file">
<polygon fill="#e7ebf4" stroke="#404040" points="626,-90 594,-90 594,-71 626,-71 626,-90"/>
<text text-anchor="middle" x="610" y="-78" font-family="Helvetica,sans-Serif" font-size="10.00">file</text>
</a>
</g>
</g>
<!-- dir_a9c6f7b80249434a4cb63ba05bc9d935&#45;&gt;dir_008e24b6ef3ec489277636e4133de850 -->
<g id="edge16" class="edge">
<title>dir_a9c6f7b80249434a4cb63ba05bc9d935&#45;&gt;dir_008e24b6ef3ec489277636e4133de850</title>
<g id="a_edge16"><a xlink:href="dir_000033_000077.html" target="_top">
<path fill="none" stroke="#63b8ff" d="M609.83,-70.75C609.7,-63.8 609.52,-53.85 609.35,-45.13"/>
<polygon fill="#63b8ff" stroke="#63b8ff" points="612.85,-45.02 609.16,-35.09 605.85,-45.15 612.85,-45.02"/>
</a>
</g>
<g id="a_edge16&#45;headlabel"><a xlink:href="dir_000033_000077.html" target="_top" xlink:title="2">
<text text-anchor="middle" x="615.76" y="-46.06" font-family="Helvetica,sans-Serif" font-size="10.00" fill="#63b8ff">2</text>
</a>
</g>
</g>
<!-- dir_a9c6f7b80249434a4cb63ba05bc9d935&#45;&gt;dir_2e21134419e2db2c9a4ff64f0ab0ad8d -->
<g id="edge17" class="edge">
<title>dir_a9c6f7b80249434a4cb63ba05bc9d935&#45;&gt;dir_2e21134419e2db2c9a4ff64f0ab0ad8d</title>
<g id="a_edge17"><a xlink:href="dir_000033_000095.html" target="_top">
<path fill="none" stroke="#63b8ff" d="M616.74,-70.74C621.49,-65.25 628.35,-58.56 636,-55 703.3,-23.69 730.93,-48.52 807.17,-34.94"/>
<polygon fill="#63b8ff" stroke="#63b8ff" points="808.08,-38.33 817.23,-32.98 806.74,-31.46 808.08,-38.33"/>
</a>
</g>
<g id="a_edge17&#45;headlabel"><a xlink:href="dir_000033_000095.html" target="_top" xlink:title="1">
<text text-anchor="middle" x="805.1" y="-39.31" font-family="Helvetica,sans-Serif" font-size="10.00" fill="#63b8ff">1</text>
</a>
</g>
</g>
<!-- dir_a9c6f7b80249434a4cb63ba05bc9d935&#45;&gt;dir_34d8c116a98ee54e3e383a09eadea7c5 -->
<g id="edge18" class="edge">
<title>dir_a9c6f7b80249434a4cb63ba05bc9d935&#45;&gt;dir_34d8c116a98ee54e3e383a09eadea7c5</title>
<g id="a_edge18"><a xlink:href="dir_000033_000087.html" target="_top">
<path fill="none" stroke="#63b8ff" d="M618.42,-70.75C625.77,-63.11 636.63,-51.82 645.54,-42.56"/>
<polygon fill="#63b8ff" stroke="#63b8ff" points="648.32,-44.72 652.74,-35.09 643.28,-39.87 648.32,-44.72"/>
</a>
</g>
<g id="a_edge18&#45;headlabel"><a xlink:href="dir_000033_000087.html" target="_top" xlink:title="2">
<text text-anchor="middle" x="647.88" y="-46.78" font-family="Helvetica,sans-Serif" font-size="10.00" fill="#63b8ff">2</text>
</a>
</g>
</g>
<!-- dir_a9c6f7b80249434a4cb63ba05bc9d935&#45;&gt;dir_49892635ae30f06b98770bacb35a9385 -->
<g id="edge19" class="edge">
<title>dir_a9c6f7b80249434a4cb63ba05bc9d935&#45;&gt;dir_49892635ae30f06b98770bacb35a9385</title>
<g id="a_edge19"><a xlink:href="dir_000033_000007.html" target="_top">
<path fill="none" stroke="#63b8ff" d="M617.49,-70.85C622.34,-65.68 629.03,-59.3 636,-55 644.33,-49.86 665.79,-42.15 684.09,-36.04"/>
<polygon fill="#63b8ff" stroke="#63b8ff" points="685.42,-39.29 693.83,-32.84 683.24,-32.64 685.42,-39.29"/>
</a>
</g>
<g id="a_edge19&#45;headlabel"><a xlink:href="dir_000033_000007.html" target="_top" xlink:title="4">
<text text-anchor="middle" x="682.89" y="-40.61" font-family="Helvetica,sans-Serif" font-size="10.00" fill="#63b8ff">4</text>
</a>
</g>
</g>
<!-- dir_a9c6f7b80249434a4cb63ba05bc9d935&#45;&gt;dir_974c35a9e5da76de066be5bc9a9208f0 -->
<g id="edge21" class="edge">
<title>dir_a9c6f7b80249434a4cb63ba05bc9d935&#45;&gt;dir_974c35a9e5da76de066be5bc9a9208f0</title>
<g id="a_edge21"><a xlink:href="dir_000033_000014.html" target="_top">
<path fill="none" stroke="#63b8ff" d="M603.89,-70.81C600.18,-65.87 595.18,-59.75 590,-55 584.41,-49.88 577.84,-44.99 571.57,-40.74"/>
<polygon fill="#63b8ff" stroke="#63b8ff" points="573.06,-37.54 562.76,-35.04 569.25,-43.41 573.06,-37.54"/>
</a>
</g>
<g id="a_edge21&#45;headlabel"><a xlink:href="dir_000033_000014.html" target="_top" xlink:title="1">
<text text-anchor="middle" x="577.62" y="-34.61" font-family="Helvetica,sans-Serif" font-size="10.00" fill="#63b8ff">1</text>
</a>
</g>
</g>
<!-- dir_a9c6f7b80249434a4cb63ba05bc9d935&#45;&gt;dir_cce7e4eda75c585c784c6ea3659dc5d2 -->
<g id="edge23" class="edge">
<title>dir_a9c6f7b80249434a4cb63ba05bc9d935&#45;&gt;dir_cce7e4eda75c585c784c6ea3659dc5d2</title>
<g id="a_edge23"><a xlink:href="dir_000033_000040.html" target="_top">
<path fill="none" stroke="#63b8ff" d="M616.83,-70.92C621.61,-65.5 628.48,-58.82 636,-55 676.52,-34.41 693.66,-44.11 742.42,-34.86"/>
<polygon fill="#63b8ff" stroke="#63b8ff" points="743.17,-38.28 752.25,-32.82 741.75,-31.42 743.17,-38.28"/>
</a>
</g>
<g id="a_edge23&#45;headlabel"><a xlink:href="dir_000033_000040.html" target="_top" xlink:title="1">
<text text-anchor="middle" x="740.23" y="-39.29" font-family="Helvetica,sans-Serif" font-size="10.00" fill="#63b8ff">1</text>
</a>
</g>
</g>
<!-- dir_a9c6f7b80249434a4cb63ba05bc9d935&#45;&gt;dir_669c8d98ab0a41d3f42c455aff8a0105 -->
<g id="edge20" class="edge">
<title>dir_a9c6f7b80249434a4cb63ba05bc9d935&#45;&gt;dir_669c8d98ab0a41d3f42c455aff8a0105</title>
<g id="a_edge20"><a xlink:href="dir_000033_000013.html" target="_top">
<path fill="none" stroke="#63b8ff" d="M616.69,-70.62C621.41,-65.07 628.27,-58.37 636,-55 694.62,-29.44 855.29,-43.58 935.11,-34.66"/>
<polygon fill="#63b8ff" stroke="#63b8ff" points="935.9,-38.08 945.36,-33.31 934.99,-31.14 935.9,-38.08"/>
</a>
</g>
<g id="a_edge20&#45;headlabel"><a xlink:href="dir_000033_000013.html" target="_top" xlink:title="1">
<text text-anchor="middle" x="932.71" y="-38.87" font-family="Helvetica,sans-Serif" font-size="10.00" fill="#63b8ff">1</text>
</a>
</g>
</g>
<!-- dir_a9c6f7b80249434a4cb63ba05bc9d935&#45;&gt;dir_cba44140afe74f820e83d8e084616738 -->
<g id="edge22" class="edge">
<title>dir_a9c6f7b80249434a4cb63ba05bc9d935&#45;&gt;dir_cba44140afe74f820e83d8e084616738</title>
<g id="a_edge22"><a xlink:href="dir_000033_000045.html" target="_top">
<path fill="none" stroke="#63b8ff" d="M616.71,-70.67C621.44,-65.14 628.3,-58.44 636,-55 680.84,-34.94 803.37,-42.91 864.86,-35.32"/>
<polygon fill="#63b8ff" stroke="#63b8ff" points="865.51,-38.76 874.89,-33.83 864.48,-31.83 865.51,-38.76"/>
</a>
</g>
<g id="a_edge22&#45;headlabel"><a xlink:href="dir_000033_000045.html" target="_top" xlink:title="2">
<text text-anchor="middle" x="862.37" y="-39.59" font-family="Helvetica,sans-Serif" font-size="10.00" fill="#63b8ff">2</text>
</a>
</g>
</g>
</g>
</svg>
