<?xml version="1.0" encoding="UTF-8" standalone="no"?>
<!DOCTYPE svg PUBLIC "-//W3C//DTD SVG 1.1//EN"
 "http://www.w3.org/Graphics/SVG/1.1/DTD/svg11.dtd">
<!-- Generated by graphviz version 2.43.0 (0)
 -->
<!-- Title: squid/src/ssl/ErrorDetailManager.h Pages: 1 -->
<!--zoomable 236 -->

<svg id="main" version="1.1" xmlns="http://www.w3.org/2000/svg" xmlns:xlink="http://www.w3.org/1999/xlink" xml:space="preserve" onload="init(evt)">
<style type="text/css"><![CDATA[
.node, .edge {opacity: 0.7;}
.node.selected, .edge.selected {opacity: 1;}
.edge:hover path { stroke: red; }
.edge:hover polygon { stroke: red; fill: red; }
]]></style>

<defs>
  <circle id="rim" cx="0" cy="0" r="7"/>
  <circle id="rim2" cx="0" cy="0" r="3.5"/>
  <g id="zoomPlus">
    <use xlink:href="#rim" fill="#404040"><set attributeName="fill" to="#808080" begin="zoomplus.mouseover" end="zoomplus.mouseout"/></use>
    <path d="M-4,0h8M0,-4v8" fill="none" stroke="white" stroke-width="1.5" pointer-events="none"/>
  </g>
  <g id="zoomMin">
    <use xlink:href="#rim" fill="#404040"><set attributeName="fill" to="#808080" begin="zoomminus.mouseover" end="zoomminus.mouseout"/></use>
    <path d="M-4,0h8" fill="none" stroke="white" stroke-width="1.5" pointer-events="none"/>
  </g>
  <g id="arrowUp" transform="translate(30 24)">
    <use xlink:href="#rim"/>
    <path pointer-events="none" fill="none" stroke="white" stroke-width="1.5" d="M0,-3.0v7 M-2.5,-0.5L0,-3.0L2.5,-0.5"/>
  </g>
  <g id="arrowRight" transform="rotate(90) translate(36 -43)">
    <use xlink:href="#rim"/>
    <path pointer-events="none" fill="none" stroke="white" stroke-width="1.5" d="M0,-3.0v7 M-2.5,-0.5L0,-3.0L2.5,-0.5"/>
  </g>
  <g id="arrowDown" transform="rotate(180) translate(-30 -48)">
    <use xlink:href="#rim"/>
    <path pointer-events="none" fill="none" stroke="white" stroke-width="1.5" d="M0,-3.0v7 M-2.5,-0.5L0,-3.0L2.5,-0.5"/>
  </g>
  <g id="arrowLeft" transform="rotate(270) translate(-36 17)">
    <use xlink:href="#rim"/>
    <path pointer-events="none" fill="none" stroke="white" stroke-width="1.5" d="M0,-3.0v7 M-2.5,-0.5L0,-3.0L2.5,-0.5"/>
  </g>
  <g id="resetDef">
    <use xlink:href="#rim2" fill="#404040"><set attributeName="fill" to="#808080" begin="reset.mouseover" end="reset.mouseout"/></use>
  </g>
</defs>
<script type="application/ecmascript">
var viewWidth = 1972;
var viewHeight = 236;
var sectionId = 'dynsection-1';
</script>
<script type="application/ecmascript" xlink:href="svg.min.js"/>
<svg id="graph" class="graph">
<g id="viewport">
<title>squid/src/ssl/ErrorDetailManager.h</title>
<!-- Node1 -->
<g id="Node000001" class="node">
<title>Node1</title>
<g id="a_Node000001"><a xlink:title=" ">
<polygon fill="#999999" stroke="#666666" points="1257,-228 1125,-228 1125,-198 1257,-198 1257,-228"/>
<text text-anchor="start" x="1133" y="-216" font-family="Helvetica,sans-Serif" font-size="10.00">squid/src/ssl/ErrorDetail</text>
<text text-anchor="middle" x="1191" y="-205" font-family="Helvetica,sans-Serif" font-size="10.00">Manager.h</text>
</a>
</g>
</g>
<!-- Node2 -->
<g id="Node000002" class="node">
<title>Node2</title>
<g id="a_Node000002"><a xlink:href="errorpage_8cc.html" target="_top" xlink:title=" ">
<polygon fill="white" stroke="#666666" points="405,-156.5 281,-156.5 281,-137.5 405,-137.5 405,-156.5"/>
<text text-anchor="middle" x="343" y="-144.5" font-family="Helvetica,sans-Serif" font-size="10.00">squid/src/errorpage.cc</text>
</a>
</g>
</g>
<!-- Node1&#45;&gt;Node2 -->
<g id="edge1_Node000001_Node000002" class="edge">
<title>Node1&#45;&gt;Node2</title>
<g id="a_edge1_Node000001_Node000002"><a xlink:title=" ">
<path fill="none" stroke="#63b8ff" d="M1114.81,-210.03C975.98,-205.79 672.73,-193.48 419,-162 407.68,-160.6 395.5,-158.58 384.28,-156.52"/>
<polygon fill="#63b8ff" stroke="#63b8ff" points="1114.82,-213.53 1124.92,-210.34 1115.03,-206.54 1114.82,-213.53"/>
</a>
</g>
</g>
<!-- Node3 -->
<g id="Node000003" class="node">
<title>Node3</title>
<g id="a_Node000003"><a xlink:href="security_2ErrorDetail_8cc.html" target="_top" xlink:title=" ">
<polygon fill="white" stroke="#666666" points="102,-30 0,-30 0,0 102,0 102,-30"/>
<text text-anchor="start" x="8" y="-18" font-family="Helvetica,sans-Serif" font-size="10.00">squid/src/security</text>
<text text-anchor="middle" x="51" y="-7" font-family="Helvetica,sans-Serif" font-size="10.00">/ErrorDetail.cc</text>
</a>
</g>
</g>
<!-- Node1&#45;&gt;Node3 -->
<g id="edge2_Node000001_Node000003" class="edge">
<title>Node1&#45;&gt;Node3</title>
<g id="a_edge2_Node000001_Node000003"><a xlink:title=" ">
<path fill="none" stroke="#63b8ff" d="M1114.69,-201.11C979.75,-181.63 690.27,-138.84 447,-96 297.12,-69.61 259.79,-61.96 111,-30 108.07,-29.37 105.07,-28.71 102.04,-28.04"/>
<polygon fill="#63b8ff" stroke="#63b8ff" points="1114.52,-204.62 1124.92,-202.59 1115.52,-197.7 1114.52,-204.62"/>
</a>
</g>
</g>
<!-- Node4 -->
<g id="Node000004" class="node">
<title>Node4</title>
<g id="a_Node000004"><a xlink:href="security_2ErrorDetail_8h.html" target="_top" xlink:title=" ">
<polygon fill="white" stroke="#666666" points="1242,-162 1140,-162 1140,-132 1242,-132 1242,-162"/>
<text text-anchor="start" x="1148" y="-150" font-family="Helvetica,sans-Serif" font-size="10.00">squid/src/security</text>
<text text-anchor="middle" x="1191" y="-139" font-family="Helvetica,sans-Serif" font-size="10.00">/ErrorDetail.h</text>
</a>
</g>
</g>
<!-- Node1&#45;&gt;Node4 -->
<g id="edge3_Node000001_Node000004" class="edge">
<title>Node1&#45;&gt;Node4</title>
<g id="a_edge3_Node000001_Node000004"><a xlink:title=" ">
<path fill="none" stroke="#63b8ff" d="M1191,-187.54C1191,-178.96 1191,-169.61 1191,-162.16"/>
<polygon fill="#63b8ff" stroke="#63b8ff" points="1187.5,-187.8 1191,-197.8 1194.5,-187.8 1187.5,-187.8"/>
</a>
</g>
</g>
<!-- Node15 -->
<g id="Node000015" class="node">
<title>Node15</title>
<g id="a_Node000015"><a xlink:href="ssl_2ErrorDetail_8cc.html" target="_top" xlink:title=" ">
<polygon fill="white" stroke="#666666" points="1814,-24.5 1668,-24.5 1668,-5.5 1814,-5.5 1814,-24.5"/>
<text text-anchor="middle" x="1741" y="-12.5" font-family="Helvetica,sans-Serif" font-size="10.00">squid/src/ssl/ErrorDetail.cc</text>
</a>
</g>
</g>
<!-- Node1&#45;&gt;Node15 -->
<g id="edge24_Node000001_Node000015" class="edge">
<title>Node1&#45;&gt;Node15</title>
<g id="a_edge24_Node000001_Node000015"><a xlink:title=" ">
<path fill="none" stroke="#63b8ff" d="M1261.74,-195.57C1341.86,-175.96 1475.61,-140.23 1586,-96 1639.69,-74.49 1699.55,-40.54 1726.48,-24.69"/>
<polygon fill="#63b8ff" stroke="#63b8ff" points="1260.65,-192.23 1251.76,-197.99 1262.31,-199.03 1260.65,-192.23"/>
</a>
</g>
</g>
<!-- Node16 -->
<g id="Node000016" class="node">
<title>Node16</title>
<g id="a_Node000016"><a xlink:href="ErrorDetailManager_8cc.html" target="_top" xlink:title=" ">
<polygon fill="white" stroke="#666666" points="1964,-30 1832,-30 1832,0 1964,0 1964,-30"/>
<text text-anchor="start" x="1840" y="-18" font-family="Helvetica,sans-Serif" font-size="10.00">squid/src/ssl/ErrorDetail</text>
<text text-anchor="middle" x="1898" y="-7" font-family="Helvetica,sans-Serif" font-size="10.00">Manager.cc</text>
</a>
</g>
</g>
<!-- Node1&#45;&gt;Node16 -->
<g id="edge25_Node000001_Node000016" class="edge">
<title>Node1&#45;&gt;Node16</title>
<g id="a_edge25_Node000001_Node000016"><a xlink:title=" ">
<path fill="none" stroke="#63b8ff" d="M1267.4,-199.91C1319.5,-191.03 1389.88,-177.79 1451,-162 1605.33,-122.12 1784.27,-58.15 1860.5,-30.03"/>
<polygon fill="#63b8ff" stroke="#63b8ff" points="1266.5,-196.51 1257.23,-201.63 1267.67,-203.41 1266.5,-196.51"/>
</a>
</g>
</g>
<!-- Node4&#45;&gt;Node3 -->
<g id="edge4_Node000004_Node000003" class="edge">
<title>Node4&#45;&gt;Node3</title>
<g id="a_edge4_Node000004_Node000003"><a xlink:title=" ">
<path fill="none" stroke="#63b8ff" d="M1129.66,-145.78C981.38,-144.59 607.1,-137.45 490,-96 468.03,-88.22 468.83,-74.16 447,-66 306.33,-13.38 259.07,-55.11 111,-30 108.15,-29.52 105.24,-28.98 102.3,-28.41"/>
<polygon fill="#63b8ff" stroke="#63b8ff" points="1129.91,-149.28 1139.94,-145.86 1129.96,-142.28 1129.91,-149.28"/>
</a>
</g>
</g>
<!-- Node5 -->
<g id="Node000005" class="node">
<title>Node5</title>
<g id="a_Node000005"><a xlink:href="Io_8h.html" target="_top" xlink:title=" ">
<polygon fill="white" stroke="#666666" points="622.5,-90.5 499.5,-90.5 499.5,-71.5 622.5,-71.5 622.5,-90.5"/>
<text text-anchor="middle" x="561" y="-78.5" font-family="Helvetica,sans-Serif" font-size="10.00">squid/src/security/Io.h</text>
</a>
</g>
</g>
<!-- Node4&#45;&gt;Node5 -->
<g id="edge5_Node000004_Node000005" class="edge">
<title>Node4&#45;&gt;Node5</title>
<g id="a_edge5_Node000004_Node000005"><a xlink:title=" ">
<path fill="none" stroke="#63b8ff" d="M1129.84,-139.79C1009.5,-127.56 743.25,-100.51 622.58,-88.26"/>
<polygon fill="#63b8ff" stroke="#63b8ff" points="1129.68,-143.29 1139.98,-140.82 1130.38,-136.32 1129.68,-143.29"/>
</a>
</g>
</g>
<!-- Node11 -->
<g id="Node000011" class="node">
<title>Node11</title>
<g id="a_Node000011"><a xlink:href="stub__libsecurity_8cc.html" target="_top" xlink:title=" ">
<polygon fill="white" stroke="#666666" points="891.5,-30 780.5,-30 780.5,0 891.5,0 891.5,-30"/>
<text text-anchor="start" x="788.5" y="-18" font-family="Helvetica,sans-Serif" font-size="10.00">squid/src/tests/stub</text>
<text text-anchor="middle" x="836" y="-7" font-family="Helvetica,sans-Serif" font-size="10.00">_libsecurity.cc</text>
</a>
</g>
</g>
<!-- Node4&#45;&gt;Node11 -->
<g id="edge23_Node000004_Node000011" class="edge">
<title>Node4&#45;&gt;Node11</title>
<g id="a_edge23_Node000004_Node000011"><a xlink:title=" ">
<path fill="none" stroke="#63b8ff" d="M1143.05,-128.44C1071.87,-102.37 939.67,-53.96 874.44,-30.08"/>
<polygon fill="#63b8ff" stroke="#63b8ff" points="1142.08,-131.81 1152.67,-131.96 1144.48,-125.24 1142.08,-131.81"/>
</a>
</g>
</g>
<!-- Node12 -->
<g id="Node000012" class="node">
<title>Node12</title>
<g id="a_Node000012"><a xlink:href="ssl_2ErrorDetail_8h.html" target="_top" xlink:title=" ">
<polygon fill="white" stroke="#666666" points="1380.5,-90.5 1239.5,-90.5 1239.5,-71.5 1380.5,-71.5 1380.5,-90.5"/>
<text text-anchor="middle" x="1310" y="-78.5" font-family="Helvetica,sans-Serif" font-size="10.00">squid/src/ssl/ErrorDetail.h</text>
</a>
</g>
</g>
<!-- Node4&#45;&gt;Node12 -->
<g id="edge13_Node000004_Node000012" class="edge">
<title>Node4&#45;&gt;Node12</title>
<g id="a_edge13_Node000004_Node000012"><a xlink:title=" ">
<path fill="none" stroke="#63b8ff" d="M1226.07,-127.14C1248.64,-115 1276.87,-99.82 1294.16,-90.52"/>
<polygon fill="#63b8ff" stroke="#63b8ff" points="1224.26,-124.14 1217.12,-131.95 1227.58,-130.3 1224.26,-124.14"/>
</a>
</g>
</g>
<!-- Node18 -->
<g id="Node000018" class="node">
<title>Node18</title>
<g id="a_Node000018"><a xlink:href="support_8cc.html" target="_top" xlink:title=" ">
<polygon fill="white" stroke="#666666" points="1650,-24.5 1520,-24.5 1520,-5.5 1650,-5.5 1650,-24.5"/>
<text text-anchor="middle" x="1585" y="-12.5" font-family="Helvetica,sans-Serif" font-size="10.00">squid/src/ssl/support.cc</text>
</a>
</g>
</g>
<!-- Node4&#45;&gt;Node18 -->
<g id="edge22_Node000004_Node000018" class="edge">
<title>Node4&#45;&gt;Node18</title>
<g id="a_edge22_Node000004_Node000018"><a xlink:title=" ">
<path fill="none" stroke="#63b8ff" d="M1252.14,-137.51C1292.74,-130.24 1346.39,-117.46 1390,-96 1409.31,-86.5 1409,-76.09 1428,-66 1465.52,-46.07 1512.34,-32.44 1545.04,-24.5"/>
<polygon fill="#63b8ff" stroke="#63b8ff" points="1251.37,-134.09 1242.11,-139.24 1252.56,-140.99 1251.37,-134.09"/>
</a>
</g>
</g>
<!-- Node20 -->
<g id="Node000020" class="node">
<title>Node20</title>
<g id="a_Node000020"><a xlink:href="PeekingPeerConnector_8cc.html" target="_top" xlink:title=" ">
<polygon fill="white" stroke="#666666" points="1577,-96 1437,-96 1437,-66 1577,-66 1577,-96"/>
<text text-anchor="start" x="1445" y="-84" font-family="Helvetica,sans-Serif" font-size="10.00">squid/src/ssl/PeekingPeer</text>
<text text-anchor="middle" x="1507" y="-73" font-family="Helvetica,sans-Serif" font-size="10.00">Connector.cc</text>
</a>
</g>
</g>
<!-- Node4&#45;&gt;Node20 -->
<g id="edge21_Node000004_Node000020" class="edge">
<title>Node4&#45;&gt;Node20</title>
<g id="a_edge21_Node000004_Node000020"><a xlink:title=" ">
<path fill="none" stroke="#63b8ff" d="M1252.09,-133.63C1305.24,-122.86 1382.22,-107.27 1437.66,-96.04"/>
<polygon fill="#63b8ff" stroke="#63b8ff" points="1251.23,-130.23 1242.12,-135.65 1252.62,-137.09 1251.23,-130.23"/>
</a>
</g>
</g>
<!-- Node5&#45;&gt;Node3 -->
<g id="edge7_Node000005_Node000003" class="edge">
<title>Node5&#45;&gt;Node3</title>
<g id="a_edge7_Node000005_Node000003"><a xlink:title=" ">
<path fill="none" stroke="#63b8ff" d="M508.08,-69.65C500.35,-68.31 492.48,-67.05 485,-66 319.62,-42.85 275.79,-57.03 111,-30 108.15,-29.53 105.23,-29.01 102.3,-28.44"/>
<polygon fill="#63b8ff" stroke="#63b8ff" points="507.64,-73.12 518.1,-71.43 508.87,-66.23 507.64,-73.12"/>
</a>
</g>
</g>
<!-- Node6 -->
<g id="Node000006" class="node">
<title>Node6</title>
<g id="a_Node000006"><a xlink:href="client__side_8cc.html" target="_top" xlink:title=" ">
<polygon fill="white" stroke="#666666" points="249.5,-24.5 120.5,-24.5 120.5,-5.5 249.5,-5.5 249.5,-24.5"/>
<text text-anchor="middle" x="185" y="-12.5" font-family="Helvetica,sans-Serif" font-size="10.00">squid/src/client_side.cc</text>
</a>
</g>
</g>
<!-- Node5&#45;&gt;Node6 -->
<g id="edge6_Node000005_Node000006" class="edge">
<title>Node5&#45;&gt;Node6</title>
<g id="a_edge6_Node000005_Node000006"><a xlink:title=" ">
<path fill="none" stroke="#63b8ff" d="M505.57,-69.63C498.65,-68.38 491.66,-67.14 485,-66 384.76,-48.79 359.2,-47.46 259,-30 249.21,-28.29 238.71,-26.37 228.79,-24.5"/>
<polygon fill="#63b8ff" stroke="#63b8ff" points="505.16,-73.11 515.62,-71.45 506.41,-66.22 505.16,-73.11"/>
</a>
</g>
</g>
<!-- Node7 -->
<g id="Node000007" class="node">
<title>Node7</title>
<g id="a_Node000007"><a xlink:href="Io_8cc.html" target="_top" xlink:title=" ">
<polygon fill="white" stroke="#666666" points="370,-30 268,-30 268,0 370,0 370,-30"/>
<text text-anchor="start" x="276" y="-18" font-family="Helvetica,sans-Serif" font-size="10.00">squid/src/security</text>
<text text-anchor="middle" x="319" y="-7" font-family="Helvetica,sans-Serif" font-size="10.00">/Io.cc</text>
</a>
</g>
</g>
<!-- Node5&#45;&gt;Node7 -->
<g id="edge8_Node000005_Node000007" class="edge">
<title>Node5&#45;&gt;Node7</title>
<g id="a_edge8_Node000005_Node000007"><a xlink:title=" ">
<path fill="none" stroke="#63b8ff" d="M518.85,-68.85C477.51,-57.92 414.41,-41.23 370.2,-29.54"/>
<polygon fill="#63b8ff" stroke="#63b8ff" points="518.05,-72.26 528.61,-71.44 519.84,-65.49 518.05,-72.26"/>
</a>
</g>
</g>
<!-- Node8 -->
<g id="Node000008" class="node">
<title>Node8</title>
<g id="a_Node000008"><a xlink:href="PeerConnector_8cc.html" target="_top" xlink:title=" ">
<polygon fill="white" stroke="#666666" points="492,-30 388,-30 388,0 492,0 492,-30"/>
<text text-anchor="start" x="396" y="-18" font-family="Helvetica,sans-Serif" font-size="10.00">squid/src/security</text>
<text text-anchor="middle" x="440" y="-7" font-family="Helvetica,sans-Serif" font-size="10.00">/PeerConnector.cc</text>
</a>
</g>
</g>
<!-- Node5&#45;&gt;Node8 -->
<g id="edge9_Node000005_Node000008" class="edge">
<title>Node5&#45;&gt;Node8</title>
<g id="a_edge9_Node000005_Node000008"><a xlink:title=" ">
<path fill="none" stroke="#63b8ff" d="M535.75,-66.64C515.54,-55.95 487.27,-41 466.69,-30.12"/>
<polygon fill="#63b8ff" stroke="#63b8ff" points="534.21,-69.79 544.68,-71.37 537.48,-63.6 534.21,-69.79"/>
</a>
</g>
</g>
<!-- Node9 -->
<g id="Node000009" class="node">
<title>Node9</title>
<g id="a_Node000009"><a xlink:href="security_2Session_8cc.html" target="_top" xlink:title=" ">
<polygon fill="white" stroke="#666666" points="612,-30 510,-30 510,0 612,0 612,-30"/>
<text text-anchor="start" x="518" y="-18" font-family="Helvetica,sans-Serif" font-size="10.00">squid/src/security</text>
<text text-anchor="middle" x="561" y="-7" font-family="Helvetica,sans-Serif" font-size="10.00">/Session.cc</text>
</a>
</g>
</g>
<!-- Node5&#45;&gt;Node9 -->
<g id="edge10_Node000005_Node000009" class="edge">
<title>Node5&#45;&gt;Node9</title>
<g id="a_edge10_Node000005_Node000009"><a xlink:title=" ">
<path fill="none" stroke="#63b8ff" d="M561,-61.35C561,-51.47 561,-39.51 561,-30.36"/>
<polygon fill="#63b8ff" stroke="#63b8ff" points="557.5,-61.37 561,-71.37 564.5,-61.37 557.5,-61.37"/>
</a>
</g>
</g>
<!-- Node10 -->
<g id="Node000010" class="node">
<title>Node10</title>
<g id="a_Node000010"><a xlink:href="ssl_2gadgets_8cc.html" target="_top" xlink:title=" ">
<polygon fill="white" stroke="#666666" points="762,-24.5 630,-24.5 630,-5.5 762,-5.5 762,-24.5"/>
<text text-anchor="middle" x="696" y="-12.5" font-family="Helvetica,sans-Serif" font-size="10.00">squid/src/ssl/gadgets.cc</text>
</a>
</g>
</g>
<!-- Node5&#45;&gt;Node10 -->
<g id="edge11_Node000005_Node000010" class="edge">
<title>Node5&#45;&gt;Node10</title>
<g id="a_edge11_Node000005_Node000010"><a xlink:title=" ">
<path fill="none" stroke="#63b8ff" d="M588.36,-67.03C614.97,-54.42 654.63,-35.61 677.65,-24.7"/>
<polygon fill="#63b8ff" stroke="#63b8ff" points="586.74,-63.92 579.21,-71.37 589.74,-70.25 586.74,-63.92"/>
</a>
</g>
</g>
<!-- Node5&#45;&gt;Node11 -->
<g id="edge12_Node000005_Node000011" class="edge">
<title>Node5&#45;&gt;Node11</title>
<g id="a_edge12_Node000005_Node000011"><a xlink:title=" ">
<path fill="none" stroke="#63b8ff" d="M607.57,-69.16C655.32,-58.05 729.59,-40.77 780.39,-28.94"/>
<polygon fill="#63b8ff" stroke="#63b8ff" points="606.75,-65.76 597.8,-71.44 608.34,-72.58 606.75,-65.76"/>
</a>
</g>
</g>
<!-- Node13 -->
<g id="Node000013" class="node">
<title>Node13</title>
<g id="a_Node000013"><a xlink:href="SslErrorData_8cc.html" target="_top" xlink:title=" ">
<polygon fill="white" stroke="#666666" points="1064.5,-24.5 909.5,-24.5 909.5,-5.5 1064.5,-5.5 1064.5,-24.5"/>
<text text-anchor="middle" x="987" y="-12.5" font-family="Helvetica,sans-Serif" font-size="10.00">squid/src/acl/SslErrorData.cc</text>
</a>
</g>
</g>
<!-- Node12&#45;&gt;Node13 -->
<g id="edge14_Node000012_Node000013" class="edge">
<title>Node12&#45;&gt;Node13</title>
<g id="a_edge14_Node000012_Node000013"><a xlink:title=" ">
<path fill="none" stroke="#63b8ff" d="M1256.96,-69.49C1193.53,-56.92 1088.58,-36.13 1029.97,-24.51"/>
<polygon fill="#63b8ff" stroke="#63b8ff" points="1256.28,-72.92 1266.77,-71.44 1257.64,-66.06 1256.28,-72.92"/>
</a>
</g>
</g>
<!-- Node14 -->
<g id="Node000014" class="node">
<title>Node14</title>
<g id="a_Node000014"><a xlink:href="Format_8cc.html" target="_top" xlink:title=" ">
<polygon fill="white" stroke="#666666" points="1229.5,-24.5 1082.5,-24.5 1082.5,-5.5 1229.5,-5.5 1229.5,-24.5"/>
<text text-anchor="middle" x="1156" y="-12.5" font-family="Helvetica,sans-Serif" font-size="10.00">squid/src/format/Format.cc</text>
</a>
</g>
</g>
<!-- Node12&#45;&gt;Node14 -->
<g id="edge15_Node000012_Node000014" class="edge">
<title>Node12&#45;&gt;Node14</title>
<g id="a_edge15_Node000012_Node000014"><a xlink:title=" ">
<path fill="none" stroke="#63b8ff" d="M1279.98,-67.52C1249.63,-54.91 1203.53,-35.75 1176.93,-24.7"/>
<polygon fill="#63b8ff" stroke="#63b8ff" points="1278.65,-70.76 1289.23,-71.37 1281.34,-64.3 1278.65,-70.76"/>
</a>
</g>
</g>
<!-- Node12&#45;&gt;Node15 -->
<g id="edge16_Node000012_Node000015" class="edge">
<title>Node12&#45;&gt;Node15</title>
<g id="a_edge16_Node000012_Node000015"><a xlink:title=" ">
<path fill="none" stroke="#63b8ff" d="M1383.26,-70.09C1453.94,-60.38 1563.9,-44.93 1659,-30 1669.84,-28.3 1681.48,-26.37 1692.47,-24.51"/>
<polygon fill="#63b8ff" stroke="#63b8ff" points="1382.56,-66.65 1373.12,-71.47 1383.51,-73.58 1382.56,-66.65"/>
</a>
</g>
</g>
<!-- Node12&#45;&gt;Node16 -->
<g id="edge17_Node000012_Node000016" class="edge">
<title>Node12&#45;&gt;Node16</title>
<g id="a_edge17_Node000012_Node000016"><a xlink:title=" ">
<path fill="none" stroke="#63b8ff" d="M1389.46,-70.27C1402.34,-68.78 1415.53,-67.31 1428,-66 1603.32,-47.61 1648.39,-54.2 1823,-30 1825.89,-29.6 1828.83,-29.17 1831.8,-28.7"/>
<polygon fill="#63b8ff" stroke="#63b8ff" points="1388.75,-66.83 1379.22,-71.47 1389.56,-73.78 1388.75,-66.83"/>
</a>
</g>
</g>
<!-- Node17 -->
<g id="Node000017" class="node">
<title>Node17</title>
<g id="a_Node000017"><a xlink:href="cert__validate__message_8cc.html" target="_top" xlink:title=" ">
<polygon fill="white" stroke="#666666" points="1372.5,-30 1247.5,-30 1247.5,0 1372.5,0 1372.5,-30"/>
<text text-anchor="start" x="1255.5" y="-18" font-family="Helvetica,sans-Serif" font-size="10.00">squid/src/ssl/cert</text>
<text text-anchor="middle" x="1310" y="-7" font-family="Helvetica,sans-Serif" font-size="10.00">_validate_message.cc</text>
</a>
</g>
</g>
<!-- Node12&#45;&gt;Node17 -->
<g id="edge18_Node000012_Node000017" class="edge">
<title>Node12&#45;&gt;Node17</title>
<g id="a_edge18_Node000012_Node000017"><a xlink:title=" ">
<path fill="none" stroke="#63b8ff" d="M1310,-61.35C1310,-51.47 1310,-39.51 1310,-30.36"/>
<polygon fill="#63b8ff" stroke="#63b8ff" points="1306.5,-61.37 1310,-71.37 1313.5,-61.37 1306.5,-61.37"/>
</a>
</g>
</g>
<!-- Node12&#45;&gt;Node18 -->
<g id="edge19_Node000012_Node000018" class="edge">
<title>Node12&#45;&gt;Node18</title>
<g id="a_edge19_Node000012_Node000018"><a xlink:title=" ">
<path fill="none" stroke="#63b8ff" d="M1356.83,-69.1C1411,-56.49 1499.03,-36.01 1548.42,-24.51"/>
<polygon fill="#63b8ff" stroke="#63b8ff" points="1355.75,-65.76 1346.8,-71.44 1357.34,-72.58 1355.75,-65.76"/>
</a>
</g>
</g>
<!-- Node19 -->
<g id="Node000019" class="node">
<title>Node19</title>
<g id="a_Node000019"><a xlink:href="stub__libsslsquid_8cc.html" target="_top" xlink:title=" ">
<polygon fill="white" stroke="#666666" points="1501.5,-30 1390.5,-30 1390.5,0 1501.5,0 1501.5,-30"/>
<text text-anchor="start" x="1398.5" y="-18" font-family="Helvetica,sans-Serif" font-size="10.00">squid/src/tests/stub</text>
<text text-anchor="middle" x="1446" y="-7" font-family="Helvetica,sans-Serif" font-size="10.00">_libsslsquid.cc</text>
</a>
</g>
</g>
<!-- Node12&#45;&gt;Node19 -->
<g id="edge20_Node000012_Node000019" class="edge">
<title>Node12&#45;&gt;Node19</title>
<g id="a_edge20_Node000012_Node000019"><a xlink:title=" ">
<path fill="none" stroke="#63b8ff" d="M1337.46,-67.08C1360.23,-56.36 1392.56,-41.15 1416,-30.12"/>
<polygon fill="#63b8ff" stroke="#63b8ff" points="1335.9,-63.94 1328.34,-71.37 1338.88,-70.28 1335.9,-63.94"/>
</a>
</g>
</g>
</g>
</svg>

<g id="navigator" transform="translate(0 0)" fill="#404254">
  <rect fill="#f2f5e9" fill-opacity="0.5" stroke="#606060" stroke-width=".5" x="0" y="0" width="60" height="60"/>
  <use id="zoomplus" xlink:href="#zoomPlus" x="17" y="9" onmousedown="handleZoom(evt,'in')"/>
  <use id="zoomminus" xlink:href="#zoomMin" x="42" y="9" onmousedown="handleZoom(evt,'out')"/>
  <use id="reset" xlink:href="#resetDef" x="30" y="36" onmousedown="handleReset()"/>
   <use id="arrowup" xlink:href="#arrowUp" x="0" y="0" onmousedown="handlePan(0,-1)"/>
  <use id="arrowright" xlink:href="#arrowRight" x="0" y="0" onmousedown="handlePan(1,0)"/>
  <use id="arrowdown" xlink:href="#arrowDown" x="0" y="0" onmousedown="handlePan(0,1)"/>
  <use id="arrowleft" xlink:href="#arrowLeft" x="0" y="0" onmousedown="handlePan(-1,0)"/>
</g>
<svg viewBox="0 0 15 15" width="100%" height="30px" preserveAspectRatio="xMaxYMin meet">
 <g id="arrow_out" transform="scale(0.3 0.3)">
  <a xlink:href="ErrorDetailManager_8h__dep__incl_org.svg" target="_base">
   <rect id="button" ry="5" rx="5" y="6" x="6" height="38" width="38"
        fill="#f2f5e9" fill-opacity="0.5" stroke="#606060" stroke-width="1.0"/>
   <path id="arrow"
     d="M 11.500037,31.436501 C 11.940474,20.09759 22.043105,11.32322 32.158766,21.979434 L 37.068811,17.246167 C 37.068811,17.246167 37.088388,32 37.088388,32 L 22.160133,31.978069 C 22.160133,31.978069 26.997745,27.140456 26.997745,27.140456 C 18.528582,18.264221 13.291696,25.230495 11.500037,31.436501 z"
     style="fill:#404040;"/>
  </a>
 </g>
</svg>

<style type='text/css'>
<![CDATA[
[data-mouse-over-selected='false'] { opacity: 0.7; }
[data-mouse-over-selected='true']  { opacity: 1.0; }
]]>
</style>
<script type="application/ecmascript"><![CDATA[
document.addEventListener('DOMContentLoaded', (event) => {
  highlightEdges();
  highlightAdjacentNodes();
});
]]></script>
</svg>
