<?xml version="1.0" encoding="UTF-8" standalone="no"?>
<!DOCTYPE svg PUBLIC "-//W3C//DTD SVG 1.1//EN"
 "http://www.w3.org/Graphics/SVG/1.1/DTD/svg11.dtd">
<!-- Generated by graphviz version 2.43.0 (0)
 -->
<!-- Title: squid/src/security/Io.h Pages: 1 -->
<svg width="899pt" height="93pt"
 viewBox="0.00 0.00 899.00 93.00" xmlns="http://www.w3.org/2000/svg" xmlns:xlink="http://www.w3.org/1999/xlink">
<g id="graph0" class="graph" transform="scale(1 1) rotate(0) translate(4 89)">
<title>squid/src/security/Io.h</title>
<!-- Node1 -->
<g id="Node000001" class="node">
<title>Node1</title>
<g id="a_Node000001"><a xlink:title=" ">
<polygon fill="#999999" stroke="#666666" points="501,-85 378,-85 378,-66 501,-66 501,-85"/>
<text text-anchor="middle" x="439.5" y="-73" font-family="Helvetica,sans-Serif" font-size="10.00">squid/src/security/Io.h</text>
</a>
</g>
</g>
<!-- Node2 -->
<g id="Node000002" class="node">
<title>Node2</title>
<g id="a_Node000002"><a xlink:href="client__side_8cc.html" target="_top" xlink:title=" ">
<polygon fill="white" stroke="#666666" points="129,-24.5 0,-24.5 0,-5.5 129,-5.5 129,-24.5"/>
<text text-anchor="middle" x="64.5" y="-12.5" font-family="Helvetica,sans-Serif" font-size="10.00">squid/src/client_side.cc</text>
</a>
</g>
</g>
<!-- Node1&#45;&gt;Node2 -->
<g id="edge1_Node000001_Node000002" class="edge">
<title>Node1&#45;&gt;Node2</title>
<g id="a_edge1_Node000001_Node000002"><a xlink:title=" ">
<path fill="none" stroke="#63b8ff" d="M368.07,-64.76C307,-56.24 216.83,-43.19 138.5,-30 128.57,-28.33 117.92,-26.39 107.88,-24.51"/>
<polygon fill="#63b8ff" stroke="#63b8ff" points="367.6,-68.23 377.99,-66.14 368.57,-61.3 367.6,-68.23"/>
</a>
</g>
</g>
<!-- Node3 -->
<g id="Node000003" class="node">
<title>Node3</title>
<g id="a_Node000003"><a xlink:href="security_2ErrorDetail_8cc.html" target="_top" xlink:title=" ">
<polygon fill="white" stroke="#666666" points="249.5,-30 147.5,-30 147.5,0 249.5,0 249.5,-30"/>
<text text-anchor="start" x="155.5" y="-18" font-family="Helvetica,sans-Serif" font-size="10.00">squid/src/security</text>
<text text-anchor="middle" x="198.5" y="-7" font-family="Helvetica,sans-Serif" font-size="10.00">/ErrorDetail.cc</text>
</a>
</g>
</g>
<!-- Node1&#45;&gt;Node3 -->
<g id="edge2_Node000001_Node000003" class="edge">
<title>Node1&#45;&gt;Node3</title>
<g id="a_edge2_Node000001_Node000003"><a xlink:title=" ">
<path fill="none" stroke="#63b8ff" d="M394.7,-63.63C353.55,-53.64 292.61,-38.84 249.58,-28.4"/>
<polygon fill="#63b8ff" stroke="#63b8ff" points="393.91,-67.04 404.46,-65.99 395.56,-60.23 393.91,-67.04"/>
</a>
</g>
</g>
<!-- Node4 -->
<g id="Node000004" class="node">
<title>Node4</title>
<g id="a_Node000004"><a xlink:href="Io_8cc.html" target="_top" xlink:title=" ">
<polygon fill="white" stroke="#666666" points="369.5,-30 267.5,-30 267.5,0 369.5,0 369.5,-30"/>
<text text-anchor="start" x="275.5" y="-18" font-family="Helvetica,sans-Serif" font-size="10.00">squid/src/security</text>
<text text-anchor="middle" x="318.5" y="-7" font-family="Helvetica,sans-Serif" font-size="10.00">/Io.cc</text>
</a>
</g>
</g>
<!-- Node1&#45;&gt;Node4 -->
<g id="edge3_Node000001_Node000004" class="edge">
<title>Node1&#45;&gt;Node4</title>
<g id="a_edge3_Node000001_Node000004"><a xlink:title=" ">
<path fill="none" stroke="#63b8ff" d="M412.8,-61.59C393.57,-52.29 367.63,-39.75 347.82,-30.18"/>
<polygon fill="#63b8ff" stroke="#63b8ff" points="411.38,-64.79 421.91,-65.99 414.43,-58.49 411.38,-64.79"/>
</a>
</g>
</g>
<!-- Node5 -->
<g id="Node000005" class="node">
<title>Node5</title>
<g id="a_Node000005"><a xlink:href="PeerConnector_8cc.html" target="_top" xlink:title=" ">
<polygon fill="white" stroke="#666666" points="491.5,-30 387.5,-30 387.5,0 491.5,0 491.5,-30"/>
<text text-anchor="start" x="395.5" y="-18" font-family="Helvetica,sans-Serif" font-size="10.00">squid/src/security</text>
<text text-anchor="middle" x="439.5" y="-7" font-family="Helvetica,sans-Serif" font-size="10.00">/PeerConnector.cc</text>
</a>
</g>
</g>
<!-- Node1&#45;&gt;Node5 -->
<g id="edge4_Node000001_Node000005" class="edge">
<title>Node1&#45;&gt;Node5</title>
<g id="a_edge4_Node000001_Node000005"><a xlink:title=" ">
<path fill="none" stroke="#63b8ff" d="M439.5,-55.65C439.5,-47.36 439.5,-37.78 439.5,-30.11"/>
<polygon fill="#63b8ff" stroke="#63b8ff" points="436,-55.87 439.5,-65.87 443,-55.87 436,-55.87"/>
</a>
</g>
</g>
<!-- Node6 -->
<g id="Node000006" class="node">
<title>Node6</title>
<g id="a_Node000006"><a xlink:href="security_2Session_8cc.html" target="_top" xlink:title=" ">
<polygon fill="white" stroke="#666666" points="611.5,-30 509.5,-30 509.5,0 611.5,0 611.5,-30"/>
<text text-anchor="start" x="517.5" y="-18" font-family="Helvetica,sans-Serif" font-size="10.00">squid/src/security</text>
<text text-anchor="middle" x="560.5" y="-7" font-family="Helvetica,sans-Serif" font-size="10.00">/Session.cc</text>
</a>
</g>
</g>
<!-- Node1&#45;&gt;Node6 -->
<g id="edge5_Node000001_Node000006" class="edge">
<title>Node1&#45;&gt;Node6</title>
<g id="a_edge5_Node000001_Node000006"><a xlink:title=" ">
<path fill="none" stroke="#63b8ff" d="M466.2,-61.59C485.43,-52.29 511.37,-39.75 531.18,-30.18"/>
<polygon fill="#63b8ff" stroke="#63b8ff" points="464.57,-58.49 457.09,-65.99 467.62,-64.79 464.57,-58.49"/>
</a>
</g>
</g>
<!-- Node7 -->
<g id="Node000007" class="node">
<title>Node7</title>
<g id="a_Node000007"><a xlink:href="ssl_2gadgets_8cc.html" target="_top" xlink:title=" ">
<polygon fill="white" stroke="#666666" points="761.5,-24.5 629.5,-24.5 629.5,-5.5 761.5,-5.5 761.5,-24.5"/>
<text text-anchor="middle" x="695.5" y="-12.5" font-family="Helvetica,sans-Serif" font-size="10.00">squid/src/ssl/gadgets.cc</text>
</a>
</g>
</g>
<!-- Node1&#45;&gt;Node7 -->
<g id="edge6_Node000001_Node000007" class="edge">
<title>Node1&#45;&gt;Node7</title>
<g id="a_edge6_Node000001_Node000007"><a xlink:title=" ">
<path fill="none" stroke="#63b8ff" d="M486.54,-63.75C535.99,-52.45 612.8,-34.9 658.23,-24.52"/>
<polygon fill="#63b8ff" stroke="#63b8ff" points="485.69,-60.35 476.72,-65.99 487.25,-67.18 485.69,-60.35"/>
</a>
</g>
</g>
<!-- Node8 -->
<g id="Node000008" class="node">
<title>Node8</title>
<g id="a_Node000008"><a xlink:href="stub__libsecurity_8cc.html" target="_top" xlink:title=" ">
<polygon fill="white" stroke="#666666" points="891,-30 780,-30 780,0 891,0 891,-30"/>
<text text-anchor="start" x="788" y="-18" font-family="Helvetica,sans-Serif" font-size="10.00">squid/src/tests/stub</text>
<text text-anchor="middle" x="835.5" y="-7" font-family="Helvetica,sans-Serif" font-size="10.00">_libsecurity.cc</text>
</a>
</g>
</g>
<!-- Node1&#45;&gt;Node8 -->
<g id="edge7_Node000001_Node000008" class="edge">
<title>Node1&#45;&gt;Node8</title>
<g id="a_edge7_Node000001_Node000008"><a xlink:title=" ">
<path fill="none" stroke="#63b8ff" d="M511.09,-66.52C578.3,-58.64 681.54,-45.54 770.5,-30 773.57,-29.46 776.72,-28.89 779.89,-28.28"/>
<polygon fill="#63b8ff" stroke="#63b8ff" points="510.56,-63.06 501.03,-67.69 511.37,-70.01 510.56,-63.06"/>
</a>
</g>
</g>
</g>
</svg>
