<?xml version="1.0" encoding="UTF-8" standalone="no"?>
<!DOCTYPE svg PUBLIC "-//W3C//DTD SVG 1.1//EN"
 "http://www.w3.org/Graphics/SVG/1.1/DTD/svg11.dtd">
<!-- Generated by graphviz version 2.43.0 (0)
 -->
<!-- Title: squid/src/security/ErrorDetail.h Pages: 1 -->
<svg width="1973pt" height="170pt"
 viewBox="0.00 0.00 1973.00 170.00" xmlns="http://www.w3.org/2000/svg" xmlns:xlink="http://www.w3.org/1999/xlink">
<g id="graph0" class="graph" transform="scale(1 1) rotate(0) translate(4 166)">
<title>squid/src/security/ErrorDetail.h</title>
<!-- Node1 -->
<g id="Node000001" class="node">
<title>Node1</title>
<g id="a_Node000001"><a xlink:title=" ">
<polygon fill="#999999" stroke="#666666" points="1250,-162 1148,-162 1148,-132 1250,-132 1250,-162"/>
<text text-anchor="start" x="1156" y="-150" font-family="Helvetica,sans-Serif" font-size="10.00">squid/src/security</text>
<text text-anchor="middle" x="1199" y="-139" font-family="Helvetica,sans-Serif" font-size="10.00">/ErrorDetail.h</text>
</a>
</g>
</g>
<!-- Node2 -->
<g id="Node000002" class="node">
<title>Node2</title>
<g id="a_Node000002"><a xlink:href="security_2ErrorDetail_8cc.html" target="_top" xlink:title=" ">
<polygon fill="white" stroke="#666666" points="102,-30 0,-30 0,0 102,0 102,-30"/>
<text text-anchor="start" x="8" y="-18" font-family="Helvetica,sans-Serif" font-size="10.00">squid/src/security</text>
<text text-anchor="middle" x="51" y="-7" font-family="Helvetica,sans-Serif" font-size="10.00">/ErrorDetail.cc</text>
</a>
</g>
</g>
<!-- Node1&#45;&gt;Node2 -->
<g id="edge1_Node000001_Node000002" class="edge">
<title>Node1&#45;&gt;Node2</title>
<g id="a_edge1_Node000001_Node000002"><a xlink:title=" ">
<path fill="none" stroke="#63b8ff" d="M1137.71,-144.91C1007.07,-141.94 691.72,-131.41 430,-96 311.38,-79.95 174.48,-47.54 102.08,-29.29"/>
<polygon fill="#63b8ff" stroke="#63b8ff" points="1137.84,-148.41 1147.92,-145.13 1138,-141.41 1137.84,-148.41"/>
</a>
</g>
</g>
<!-- Node3 -->
<g id="Node000003" class="node">
<title>Node3</title>
<g id="a_Node000003"><a xlink:href="Io_8h.html" target="_top" xlink:title=" ">
<polygon fill="white" stroke="#666666" points="562.5,-90.5 439.5,-90.5 439.5,-71.5 562.5,-71.5 562.5,-90.5"/>
<text text-anchor="middle" x="501" y="-78.5" font-family="Helvetica,sans-Serif" font-size="10.00">squid/src/security/Io.h</text>
</a>
</g>
</g>
<!-- Node1&#45;&gt;Node3 -->
<g id="edge2_Node000001_Node000003" class="edge">
<title>Node1&#45;&gt;Node3</title>
<g id="a_edge2_Node000001_Node000003"><a xlink:title=" ">
<path fill="none" stroke="#63b8ff" d="M1137.61,-140.37C1005.38,-128.25 694.91,-99.78 562.54,-87.64"/>
<polygon fill="#63b8ff" stroke="#63b8ff" points="1137.68,-143.89 1147.96,-141.32 1138.32,-136.92 1137.68,-143.89"/>
</a>
</g>
</g>
<!-- Node9 -->
<g id="Node000009" class="node">
<title>Node9</title>
<g id="a_Node000009"><a xlink:href="stub__libsecurity_8cc.html" target="_top" xlink:title=" ">
<polygon fill="white" stroke="#666666" points="891.5,-30 780.5,-30 780.5,0 891.5,0 891.5,-30"/>
<text text-anchor="start" x="788.5" y="-18" font-family="Helvetica,sans-Serif" font-size="10.00">squid/src/tests/stub</text>
<text text-anchor="middle" x="836" y="-7" font-family="Helvetica,sans-Serif" font-size="10.00">_libsecurity.cc</text>
</a>
</g>
</g>
<!-- Node1&#45;&gt;Node9 -->
<g id="edge20_Node000001_Node000009" class="edge">
<title>Node1&#45;&gt;Node9</title>
<g id="a_edge20_Node000001_Node000009"><a xlink:title=" ">
<path fill="none" stroke="#63b8ff" d="M1149.97,-128.44C1077.18,-102.37 942,-53.96 875.3,-30.08"/>
<polygon fill="#63b8ff" stroke="#63b8ff" points="1149.21,-131.89 1159.81,-131.96 1151.57,-125.3 1149.21,-131.89"/>
</a>
</g>
</g>
<!-- Node10 -->
<g id="Node000010" class="node">
<title>Node10</title>
<g id="a_Node000010"><a xlink:href="ssl_2ErrorDetail_8h.html" target="_top" xlink:title=" ">
<polygon fill="white" stroke="#666666" points="1391.5,-90.5 1250.5,-90.5 1250.5,-71.5 1391.5,-71.5 1391.5,-90.5"/>
<text text-anchor="middle" x="1321" y="-78.5" font-family="Helvetica,sans-Serif" font-size="10.00">squid/src/ssl/ErrorDetail.h</text>
</a>
</g>
</g>
<!-- Node1&#45;&gt;Node10 -->
<g id="edge10_Node000001_Node000010" class="edge">
<title>Node1&#45;&gt;Node10</title>
<g id="a_edge10_Node000001_Node000010"><a xlink:title=" ">
<path fill="none" stroke="#63b8ff" d="M1234.65,-127.3C1257.83,-115.14 1286.96,-99.86 1304.76,-90.52"/>
<polygon fill="#63b8ff" stroke="#63b8ff" points="1233,-124.21 1225.77,-131.95 1236.25,-130.41 1233,-124.21"/>
</a>
</g>
</g>
<!-- Node16 -->
<g id="Node000016" class="node">
<title>Node16</title>
<g id="a_Node000016"><a xlink:href="support_8cc.html" target="_top" xlink:title=" ">
<polygon fill="white" stroke="#666666" points="1965,-24.5 1835,-24.5 1835,-5.5 1965,-5.5 1965,-24.5"/>
<text text-anchor="middle" x="1900" y="-12.5" font-family="Helvetica,sans-Serif" font-size="10.00">squid/src/ssl/support.cc</text>
</a>
</g>
</g>
<!-- Node1&#45;&gt;Node16 -->
<g id="edge19_Node000001_Node000016" class="edge">
<title>Node1&#45;&gt;Node16</title>
<g id="a_edge19_Node000001_Node000016"><a xlink:title=" ">
<path fill="none" stroke="#63b8ff" d="M1259.96,-137.85C1301.3,-130.68 1356.34,-117.88 1401,-96 1420.32,-86.53 1419.02,-73.99 1439,-66 1599.39,-1.84 1654.94,-54.08 1826,-30 1836.62,-28.51 1848.02,-26.53 1858.63,-24.54"/>
<polygon fill="#63b8ff" stroke="#63b8ff" points="1259.32,-134.41 1250.03,-139.51 1260.47,-141.31 1259.32,-134.41"/>
</a>
</g>
</g>
<!-- Node18 -->
<g id="Node000018" class="node">
<title>Node18</title>
<g id="a_Node000018"><a xlink:href="PeekingPeerConnector_8cc.html" target="_top" xlink:title=" ">
<polygon fill="white" stroke="#666666" points="1588,-96 1448,-96 1448,-66 1588,-66 1588,-96"/>
<text text-anchor="start" x="1456" y="-84" font-family="Helvetica,sans-Serif" font-size="10.00">squid/src/ssl/PeekingPeer</text>
<text text-anchor="middle" x="1518" y="-73" font-family="Helvetica,sans-Serif" font-size="10.00">Connector.cc</text>
</a>
</g>
</g>
<!-- Node1&#45;&gt;Node18 -->
<g id="edge18_Node000001_Node000018" class="edge">
<title>Node1&#45;&gt;Node18</title>
<g id="a_edge18_Node000001_Node000018"><a xlink:title=" ">
<path fill="none" stroke="#63b8ff" d="M1260.32,-133.7C1314.03,-122.92 1392.04,-107.27 1448.14,-96.02"/>
<polygon fill="#63b8ff" stroke="#63b8ff" points="1259.37,-130.32 1250.25,-135.72 1260.75,-137.18 1259.37,-130.32"/>
</a>
</g>
</g>
<!-- Node3&#45;&gt;Node2 -->
<g id="edge4_Node000003_Node000002" class="edge">
<title>Node3&#45;&gt;Node2</title>
<g id="a_edge4_Node000003_Node000002"><a xlink:title=" ">
<path fill="none" stroke="#63b8ff" d="M428.97,-72.98C350.45,-64.82 221.26,-49.88 111,-30 108.16,-29.49 105.25,-28.93 102.32,-28.34"/>
<polygon fill="#63b8ff" stroke="#63b8ff" points="428.93,-76.5 439.24,-74.04 429.65,-69.54 428.93,-76.5"/>
</a>
</g>
</g>
<!-- Node4 -->
<g id="Node000004" class="node">
<title>Node4</title>
<g id="a_Node000004"><a xlink:href="client__side_8cc.html" target="_top" xlink:title=" ">
<polygon fill="white" stroke="#666666" points="249.5,-24.5 120.5,-24.5 120.5,-5.5 249.5,-5.5 249.5,-24.5"/>
<text text-anchor="middle" x="185" y="-12.5" font-family="Helvetica,sans-Serif" font-size="10.00">squid/src/client_side.cc</text>
</a>
</g>
</g>
<!-- Node3&#45;&gt;Node4 -->
<g id="edge3_Node000003_Node000004" class="edge">
<title>Node3&#45;&gt;Node4</title>
<g id="a_edge3_Node000003_Node000004"><a xlink:title=" ">
<path fill="none" stroke="#63b8ff" d="M448.73,-69.41C386.63,-56.84 284.26,-36.1 227.04,-24.51"/>
<polygon fill="#63b8ff" stroke="#63b8ff" points="448.21,-72.88 458.71,-71.44 449.6,-66.02 448.21,-72.88"/>
</a>
</g>
</g>
<!-- Node5 -->
<g id="Node000005" class="node">
<title>Node5</title>
<g id="a_Node000005"><a xlink:href="Io_8cc.html" target="_top" xlink:title=" ">
<polygon fill="white" stroke="#666666" points="370,-30 268,-30 268,0 370,0 370,-30"/>
<text text-anchor="start" x="276" y="-18" font-family="Helvetica,sans-Serif" font-size="10.00">squid/src/security</text>
<text text-anchor="middle" x="319" y="-7" font-family="Helvetica,sans-Serif" font-size="10.00">/Io.cc</text>
</a>
</g>
</g>
<!-- Node3&#45;&gt;Node5 -->
<g id="edge5_Node000003_Node000005" class="edge">
<title>Node3&#45;&gt;Node5</title>
<g id="a_edge5_Node000003_Node000005"><a xlink:title=" ">
<path fill="none" stroke="#63b8ff" d="M466.67,-67.93C436.1,-57.18 391.36,-41.44 359.14,-30.12"/>
<polygon fill="#63b8ff" stroke="#63b8ff" points="465.86,-71.35 476.45,-71.37 468.18,-64.75 465.86,-71.35"/>
</a>
</g>
</g>
<!-- Node6 -->
<g id="Node000006" class="node">
<title>Node6</title>
<g id="a_Node000006"><a xlink:href="PeerConnector_8cc.html" target="_top" xlink:title=" ">
<polygon fill="white" stroke="#666666" points="492,-30 388,-30 388,0 492,0 492,-30"/>
<text text-anchor="start" x="396" y="-18" font-family="Helvetica,sans-Serif" font-size="10.00">squid/src/security</text>
<text text-anchor="middle" x="440" y="-7" font-family="Helvetica,sans-Serif" font-size="10.00">/PeerConnector.cc</text>
</a>
</g>
</g>
<!-- Node3&#45;&gt;Node6 -->
<g id="edge6_Node000003_Node000006" class="edge">
<title>Node3&#45;&gt;Node6</title>
<g id="a_edge6_Node000003_Node000006"><a xlink:title=" ">
<path fill="none" stroke="#63b8ff" d="M485.61,-63.85C475.78,-53.54 463.16,-40.3 453.69,-30.36"/>
<polygon fill="#63b8ff" stroke="#63b8ff" points="483.34,-66.54 492.77,-71.37 488.41,-61.72 483.34,-66.54"/>
</a>
</g>
</g>
<!-- Node7 -->
<g id="Node000007" class="node">
<title>Node7</title>
<g id="a_Node000007"><a xlink:href="security_2Session_8cc.html" target="_top" xlink:title=" ">
<polygon fill="white" stroke="#666666" points="612,-30 510,-30 510,0 612,0 612,-30"/>
<text text-anchor="start" x="518" y="-18" font-family="Helvetica,sans-Serif" font-size="10.00">squid/src/security</text>
<text text-anchor="middle" x="561" y="-7" font-family="Helvetica,sans-Serif" font-size="10.00">/Session.cc</text>
</a>
</g>
</g>
<!-- Node3&#45;&gt;Node7 -->
<g id="edge7_Node000003_Node000007" class="edge">
<title>Node3&#45;&gt;Node7</title>
<g id="a_edge7_Node000003_Node000007"><a xlink:title=" ">
<path fill="none" stroke="#63b8ff" d="M516.14,-63.85C525.8,-53.54 538.22,-40.3 547.54,-30.36"/>
<polygon fill="#63b8ff" stroke="#63b8ff" points="513.38,-61.68 509.09,-71.37 518.48,-66.47 513.38,-61.68"/>
</a>
</g>
</g>
<!-- Node8 -->
<g id="Node000008" class="node">
<title>Node8</title>
<g id="a_Node000008"><a xlink:href="ssl_2gadgets_8cc.html" target="_top" xlink:title=" ">
<polygon fill="white" stroke="#666666" points="762,-24.5 630,-24.5 630,-5.5 762,-5.5 762,-24.5"/>
<text text-anchor="middle" x="696" y="-12.5" font-family="Helvetica,sans-Serif" font-size="10.00">squid/src/ssl/gadgets.cc</text>
</a>
</g>
</g>
<!-- Node3&#45;&gt;Node8 -->
<g id="edge8_Node000003_Node000008" class="edge">
<title>Node3&#45;&gt;Node8</title>
<g id="a_edge8_Node000003_Node000008"><a xlink:title=" ">
<path fill="none" stroke="#63b8ff" d="M537.07,-68.16C575.56,-55.53 635.6,-35.82 669.81,-24.6"/>
<polygon fill="#63b8ff" stroke="#63b8ff" points="535.71,-64.92 527.3,-71.37 537.89,-71.58 535.71,-64.92"/>
</a>
</g>
</g>
<!-- Node3&#45;&gt;Node9 -->
<g id="edge9_Node000003_Node000009" class="edge">
<title>Node3&#45;&gt;Node9</title>
<g id="a_edge9_Node000003_Node000009"><a xlink:title=" ">
<path fill="none" stroke="#63b8ff" d="M559.24,-69.72C613.98,-59.94 698.17,-44.58 771,-30 774.06,-29.39 777.19,-28.75 780.35,-28.1"/>
<polygon fill="#63b8ff" stroke="#63b8ff" points="558.6,-66.28 549.37,-71.48 559.83,-73.17 558.6,-66.28"/>
</a>
</g>
</g>
<!-- Node11 -->
<g id="Node000011" class="node">
<title>Node11</title>
<g id="a_Node000011"><a xlink:href="SslErrorData_8cc.html" target="_top" xlink:title=" ">
<polygon fill="white" stroke="#666666" points="1064.5,-24.5 909.5,-24.5 909.5,-5.5 1064.5,-5.5 1064.5,-24.5"/>
<text text-anchor="middle" x="987" y="-12.5" font-family="Helvetica,sans-Serif" font-size="10.00">squid/src/acl/SslErrorData.cc</text>
</a>
</g>
</g>
<!-- Node10&#45;&gt;Node11 -->
<g id="edge11_Node000010_Node000011" class="edge">
<title>Node10&#45;&gt;Node11</title>
<g id="a_edge11_Node000010_Node000011"><a xlink:title=" ">
<path fill="none" stroke="#63b8ff" d="M1266.16,-69.49C1200.56,-56.92 1092.04,-36.13 1031.43,-24.51"/>
<polygon fill="#63b8ff" stroke="#63b8ff" points="1265.82,-72.99 1276.3,-71.44 1267.14,-66.12 1265.82,-72.99"/>
</a>
</g>
</g>
<!-- Node12 -->
<g id="Node000012" class="node">
<title>Node12</title>
<g id="a_Node000012"><a xlink:href="Format_8cc.html" target="_top" xlink:title=" ">
<polygon fill="white" stroke="#666666" points="1229.5,-24.5 1082.5,-24.5 1082.5,-5.5 1229.5,-5.5 1229.5,-24.5"/>
<text text-anchor="middle" x="1156" y="-12.5" font-family="Helvetica,sans-Serif" font-size="10.00">squid/src/format/Format.cc</text>
</a>
</g>
</g>
<!-- Node10&#45;&gt;Node12 -->
<g id="edge12_Node000010_Node000012" class="edge">
<title>Node10&#45;&gt;Node12</title>
<g id="a_edge12_Node000010_Node000012"><a xlink:title=" ">
<path fill="none" stroke="#63b8ff" d="M1289.23,-67.68C1256.62,-55.03 1206.74,-35.68 1178.16,-24.6"/>
<polygon fill="#63b8ff" stroke="#63b8ff" points="1288.16,-71.02 1298.75,-71.37 1290.69,-64.49 1288.16,-71.02"/>
</a>
</g>
</g>
<!-- Node13 -->
<g id="Node000013" class="node">
<title>Node13</title>
<g id="a_Node000013"><a xlink:href="ssl_2ErrorDetail_8cc.html" target="_top" xlink:title=" ">
<polygon fill="white" stroke="#666666" points="1394,-24.5 1248,-24.5 1248,-5.5 1394,-5.5 1394,-24.5"/>
<text text-anchor="middle" x="1321" y="-12.5" font-family="Helvetica,sans-Serif" font-size="10.00">squid/src/ssl/ErrorDetail.cc</text>
</a>
</g>
</g>
<!-- Node10&#45;&gt;Node13 -->
<g id="edge13_Node000010_Node000013" class="edge">
<title>Node10&#45;&gt;Node13</title>
<g id="a_edge13_Node000010_Node000013"><a xlink:title=" ">
<path fill="none" stroke="#63b8ff" d="M1321,-61.08C1321,-49.13 1321,-34.22 1321,-24.91"/>
<polygon fill="#63b8ff" stroke="#63b8ff" points="1317.5,-61.37 1321,-71.37 1324.5,-61.37 1317.5,-61.37"/>
</a>
</g>
</g>
<!-- Node14 -->
<g id="Node000014" class="node">
<title>Node14</title>
<g id="a_Node000014"><a xlink:href="ErrorDetailManager_8cc.html" target="_top" xlink:title=" ">
<polygon fill="white" stroke="#666666" points="1544,-30 1412,-30 1412,0 1544,0 1544,-30"/>
<text text-anchor="start" x="1420" y="-18" font-family="Helvetica,sans-Serif" font-size="10.00">squid/src/ssl/ErrorDetail</text>
<text text-anchor="middle" x="1478" y="-7" font-family="Helvetica,sans-Serif" font-size="10.00">Manager.cc</text>
</a>
</g>
</g>
<!-- Node10&#45;&gt;Node14 -->
<g id="edge14_Node000010_Node000014" class="edge">
<title>Node10&#45;&gt;Node14</title>
<g id="a_edge14_Node000010_Node000014"><a xlink:title=" ">
<path fill="none" stroke="#63b8ff" d="M1351.65,-67.5C1377.99,-56.77 1415.94,-41.3 1443.37,-30.12"/>
<polygon fill="#63b8ff" stroke="#63b8ff" points="1350.11,-64.35 1342.17,-71.37 1352.76,-70.83 1350.11,-64.35"/>
</a>
</g>
</g>
<!-- Node15 -->
<g id="Node000015" class="node">
<title>Node15</title>
<g id="a_Node000015"><a xlink:href="cert__validate__message_8cc.html" target="_top" xlink:title=" ">
<polygon fill="white" stroke="#666666" points="1687.5,-30 1562.5,-30 1562.5,0 1687.5,0 1687.5,-30"/>
<text text-anchor="start" x="1570.5" y="-18" font-family="Helvetica,sans-Serif" font-size="10.00">squid/src/ssl/cert</text>
<text text-anchor="middle" x="1625" y="-7" font-family="Helvetica,sans-Serif" font-size="10.00">_validate_message.cc</text>
</a>
</g>
</g>
<!-- Node10&#45;&gt;Node15 -->
<g id="edge15_Node000010_Node000015" class="edge">
<title>Node10&#45;&gt;Node15</title>
<g id="a_edge15_Node000010_Node000015"><a xlink:title=" ">
<path fill="none" stroke="#63b8ff" d="M1371.76,-69.31C1424.16,-58.28 1506.01,-41.05 1562.4,-29.18"/>
<polygon fill="#63b8ff" stroke="#63b8ff" points="1370.75,-65.95 1361.68,-71.44 1372.19,-72.8 1370.75,-65.95"/>
</a>
</g>
</g>
<!-- Node10&#45;&gt;Node16 -->
<g id="edge16_Node000010_Node000016" class="edge">
<title>Node10&#45;&gt;Node16</title>
<g id="a_edge16_Node000010_Node000016"><a xlink:title=" ">
<path fill="none" stroke="#63b8ff" d="M1378.72,-69.87C1387.83,-68.45 1397.16,-67.11 1406,-66 1591.9,-42.76 1640.38,-55.45 1826,-30 1836.75,-28.53 1848.31,-26.54 1859.02,-24.52"/>
<polygon fill="#63b8ff" stroke="#63b8ff" points="1377.88,-66.46 1368.56,-71.5 1378.99,-73.38 1377.88,-66.46"/>
</a>
</g>
</g>
<!-- Node17 -->
<g id="Node000017" class="node">
<title>Node17</title>
<g id="a_Node000017"><a xlink:href="stub__libsslsquid_8cc.html" target="_top" xlink:title=" ">
<polygon fill="white" stroke="#666666" points="1816.5,-30 1705.5,-30 1705.5,0 1816.5,0 1816.5,-30"/>
<text text-anchor="start" x="1713.5" y="-18" font-family="Helvetica,sans-Serif" font-size="10.00">squid/src/tests/stub</text>
<text text-anchor="middle" x="1761" y="-7" font-family="Helvetica,sans-Serif" font-size="10.00">_libsslsquid.cc</text>
</a>
</g>
</g>
<!-- Node10&#45;&gt;Node17 -->
<g id="edge17_Node000010_Node000017" class="edge">
<title>Node10&#45;&gt;Node17</title>
<g id="a_edge17_Node000010_Node000017"><a xlink:title=" ">
<path fill="none" stroke="#63b8ff" d="M1380.98,-69.81C1389.37,-68.48 1397.9,-67.17 1406,-66 1534.99,-47.41 1568.54,-51.95 1697,-30 1699.69,-29.54 1702.44,-29.04 1705.21,-28.52"/>
<polygon fill="#63b8ff" stroke="#63b8ff" points="1380.15,-66.4 1370.84,-71.45 1381.27,-73.31 1380.15,-66.4"/>
</a>
</g>
</g>
</g>
</svg>
