<?xml version="1.0" encoding="UTF-8" standalone="no"?>
<!DOCTYPE svg PUBLIC "-//W3C//DTD SVG 1.1//EN"
 "http://www.w3.org/Graphics/SVG/1.1/DTD/svg11.dtd">
<!-- Generated by graphviz version 2.43.0 (0)
 -->
<!-- Title: squid/src/error/SysErrorDetail.h Pages: 1 -->
<svg width="1430pt" height="104pt"
 viewBox="0.00 0.00 1429.50 104.00" xmlns="http://www.w3.org/2000/svg" xmlns:xlink="http://www.w3.org/1999/xlink">
<g id="graph0" class="graph" transform="scale(1 1) rotate(0) translate(4 100)">
<title>squid/src/error/SysErrorDetail.h</title>
<!-- Node1 -->
<g id="Node000001" class="node">
<title>Node1</title>
<g id="a_Node000001"><a xlink:title=" ">
<polygon fill="#999999" stroke="#666666" points="812,-96 682,-96 682,-66 812,-66 812,-96"/>
<text text-anchor="start" x="690" y="-84" font-family="Helvetica,sans-Serif" font-size="10.00">squid/src/error/SysError</text>
<text text-anchor="middle" x="747" y="-73" font-family="Helvetica,sans-Serif" font-size="10.00">Detail.h</text>
</a>
</g>
</g>
<!-- Node2 -->
<g id="Node000002" class="node">
<title>Node2</title>
<g id="a_Node000002"><a xlink:href="FtpClient_8cc.html" target="_top" xlink:title=" ">
<polygon fill="white" stroke="#666666" points="156,-24.5 0,-24.5 0,-5.5 156,-5.5 156,-24.5"/>
<text text-anchor="middle" x="78" y="-12.5" font-family="Helvetica,sans-Serif" font-size="10.00">squid/src/clients/FtpClient.cc</text>
</a>
</g>
</g>
<!-- Node1&#45;&gt;Node2 -->
<g id="edge1_Node000001_Node000002" class="edge">
<title>Node1&#45;&gt;Node2</title>
<g id="a_edge1_Node000001_Node000002"><a xlink:title=" ">
<path fill="none" stroke="#63b8ff" d="M671.71,-75.32C560.61,-68 346.3,-52.34 165,-30 152.7,-28.48 139.48,-26.53 127.14,-24.56"/>
<polygon fill="#63b8ff" stroke="#63b8ff" points="671.6,-78.82 681.81,-75.98 672.06,-71.83 671.6,-78.82"/>
</a>
</g>
</g>
<!-- Node3 -->
<g id="Node000003" class="node">
<title>Node3</title>
<g id="a_Node000003"><a xlink:href="FtpRelay_8cc.html" target="_top" xlink:title=" ">
<polygon fill="white" stroke="#666666" points="328,-24.5 174,-24.5 174,-5.5 328,-5.5 328,-24.5"/>
<text text-anchor="middle" x="251" y="-12.5" font-family="Helvetica,sans-Serif" font-size="10.00">squid/src/clients/FtpRelay.cc</text>
</a>
</g>
</g>
<!-- Node1&#45;&gt;Node3 -->
<g id="edge2_Node000001_Node000003" class="edge">
<title>Node1&#45;&gt;Node3</title>
<g id="a_edge2_Node000001_Node000003"><a xlink:title=" ">
<path fill="none" stroke="#63b8ff" d="M671.91,-71.76C589.6,-62.51 453.71,-46.61 337,-30 325.47,-28.36 313.09,-26.44 301.43,-24.56"/>
<polygon fill="#63b8ff" stroke="#63b8ff" points="671.59,-75.24 681.92,-72.88 672.37,-68.29 671.59,-75.24"/>
</a>
</g>
</g>
<!-- Node4 -->
<g id="Node000004" class="node">
<title>Node4</title>
<g id="a_Node000004"><a xlink:href="SysErrorDetail_8cc.html" target="_top" xlink:title=" ">
<polygon fill="white" stroke="#666666" points="476,-30 346,-30 346,0 476,0 476,-30"/>
<text text-anchor="start" x="354" y="-18" font-family="Helvetica,sans-Serif" font-size="10.00">squid/src/error/SysError</text>
<text text-anchor="middle" x="411" y="-7" font-family="Helvetica,sans-Serif" font-size="10.00">Detail.cc</text>
</a>
</g>
</g>
<!-- Node1&#45;&gt;Node4 -->
<g id="edge3_Node000001_Node000004" class="edge">
<title>Node1&#45;&gt;Node4</title>
<g id="a_edge3_Node000001_Node000004"><a xlink:title=" ">
<path fill="none" stroke="#63b8ff" d="M671.84,-65.68C613.01,-54.48 532.05,-39.06 476,-28.38"/>
<polygon fill="#63b8ff" stroke="#63b8ff" points="671.34,-69.15 681.82,-67.58 672.65,-62.27 671.34,-69.15"/>
</a>
</g>
</g>
<!-- Node5 -->
<g id="Node000005" class="node">
<title>Node5</title>
<g id="a_Node000005"><a xlink:href="errorpage_8cc.html" target="_top" xlink:title=" ">
<polygon fill="white" stroke="#666666" points="618,-24.5 494,-24.5 494,-5.5 618,-5.5 618,-24.5"/>
<text text-anchor="middle" x="556" y="-12.5" font-family="Helvetica,sans-Serif" font-size="10.00">squid/src/errorpage.cc</text>
</a>
</g>
</g>
<!-- Node1&#45;&gt;Node5 -->
<g id="edge4_Node000001_Node000005" class="edge">
<title>Node1&#45;&gt;Node5</title>
<g id="a_edge4_Node000001_Node000005"><a xlink:title=" ">
<path fill="none" stroke="#63b8ff" d="M695.48,-62.74C658.55,-50.36 610.4,-34.23 581.42,-24.52"/>
<polygon fill="#63b8ff" stroke="#63b8ff" points="694.49,-66.1 705.08,-65.95 696.71,-59.46 694.49,-66.1"/>
</a>
</g>
</g>
<!-- Node6 -->
<g id="Node000006" class="node">
<title>Node6</title>
<g id="a_Node000006"><a xlink:href="security_2ErrorDetail_8cc.html" target="_top" xlink:title=" ">
<polygon fill="white" stroke="#666666" points="738,-30 636,-30 636,0 738,0 738,-30"/>
<text text-anchor="start" x="644" y="-18" font-family="Helvetica,sans-Serif" font-size="10.00">squid/src/security</text>
<text text-anchor="middle" x="687" y="-7" font-family="Helvetica,sans-Serif" font-size="10.00">/ErrorDetail.cc</text>
</a>
</g>
</g>
<!-- Node1&#45;&gt;Node6 -->
<g id="edge5_Node000001_Node000006" class="edge">
<title>Node1&#45;&gt;Node6</title>
<g id="a_edge5_Node000001_Node000006"><a xlink:title=" ">
<path fill="none" stroke="#63b8ff" d="M726.72,-58.37C717.99,-49.06 708.04,-38.44 700.28,-30.16"/>
<polygon fill="#63b8ff" stroke="#63b8ff" points="724.29,-60.89 733.68,-65.8 729.4,-56.11 724.29,-60.89"/>
</a>
</g>
</g>
<!-- Node7 -->
<g id="Node000007" class="node">
<title>Node7</title>
<g id="a_Node000007"><a xlink:href="ServerOptions_8cc.html" target="_top" xlink:title=" ">
<polygon fill="white" stroke="#666666" points="858,-30 756,-30 756,0 858,0 858,-30"/>
<text text-anchor="start" x="764" y="-18" font-family="Helvetica,sans-Serif" font-size="10.00">squid/src/security</text>
<text text-anchor="middle" x="807" y="-7" font-family="Helvetica,sans-Serif" font-size="10.00">/ServerOptions.cc</text>
</a>
</g>
</g>
<!-- Node1&#45;&gt;Node7 -->
<g id="edge6_Node000001_Node000007" class="edge">
<title>Node1&#45;&gt;Node7</title>
<g id="a_edge6_Node000001_Node000007"><a xlink:title=" ">
<path fill="none" stroke="#63b8ff" d="M767.28,-58.37C776.01,-49.06 785.96,-38.44 793.72,-30.16"/>
<polygon fill="#63b8ff" stroke="#63b8ff" points="764.6,-56.11 760.32,-65.8 769.71,-60.89 764.6,-56.11"/>
</a>
</g>
</g>
<!-- Node8 -->
<g id="Node000008" class="node">
<title>Node8</title>
<g id="a_Node000008"><a xlink:href="security_2Session_8cc.html" target="_top" xlink:title=" ">
<polygon fill="white" stroke="#666666" points="978,-30 876,-30 876,0 978,0 978,-30"/>
<text text-anchor="start" x="884" y="-18" font-family="Helvetica,sans-Serif" font-size="10.00">squid/src/security</text>
<text text-anchor="middle" x="927" y="-7" font-family="Helvetica,sans-Serif" font-size="10.00">/Session.cc</text>
</a>
</g>
</g>
<!-- Node1&#45;&gt;Node8 -->
<g id="edge7_Node000001_Node000008" class="edge">
<title>Node1&#45;&gt;Node8</title>
<g id="a_edge7_Node000001_Node000008"><a xlink:title=" ">
<path fill="none" stroke="#63b8ff" d="M795.97,-62.59C824.74,-52.36 860.65,-39.59 887.59,-30.01"/>
<polygon fill="#63b8ff" stroke="#63b8ff" points="794.75,-59.31 786.5,-65.95 797.1,-65.9 794.75,-59.31"/>
</a>
</g>
</g>
<!-- Node9 -->
<g id="Node000009" class="node">
<title>Node9</title>
<g id="a_Node000009"><a xlink:href="Server_8cc.html" target="_top" xlink:title=" ">
<polygon fill="white" stroke="#666666" points="1142,-24.5 996,-24.5 996,-5.5 1142,-5.5 1142,-24.5"/>
<text text-anchor="middle" x="1069" y="-12.5" font-family="Helvetica,sans-Serif" font-size="10.00">squid/src/servers/Server.cc</text>
</a>
</g>
</g>
<!-- Node1&#45;&gt;Node9 -->
<g id="edge8_Node000001_Node000009" class="edge">
<title>Node1&#45;&gt;Node9</title>
<g id="a_edge8_Node000001_Node000009"><a xlink:title=" ">
<path fill="none" stroke="#63b8ff" d="M822.11,-65.07C885.5,-52.47 974.02,-34.88 1026.04,-24.54"/>
<polygon fill="#63b8ff" stroke="#63b8ff" points="821.29,-61.67 812.16,-67.05 822.65,-68.53 821.29,-61.67"/>
</a>
</g>
</g>
<!-- Node10 -->
<g id="Node000010" class="node">
<title>Node10</title>
<g id="a_Node000010"><a xlink:href="ssl_2gadgets_8cc.html" target="_top" xlink:title=" ">
<polygon fill="white" stroke="#666666" points="1292,-24.5 1160,-24.5 1160,-5.5 1292,-5.5 1292,-24.5"/>
<text text-anchor="middle" x="1226" y="-12.5" font-family="Helvetica,sans-Serif" font-size="10.00">squid/src/ssl/gadgets.cc</text>
</a>
</g>
</g>
<!-- Node1&#45;&gt;Node10 -->
<g id="edge9_Node000001_Node000010" class="edge">
<title>Node1&#45;&gt;Node10</title>
<g id="a_edge9_Node000001_Node000010"><a xlink:title=" ">
<path fill="none" stroke="#63b8ff" d="M822.39,-72.07C903.68,-63.19 1036.81,-47.71 1151,-30 1161.34,-28.4 1172.44,-26.45 1182.85,-24.52"/>
<polygon fill="#63b8ff" stroke="#63b8ff" points="821.81,-68.61 812.24,-73.17 822.56,-75.57 821.81,-68.61"/>
</a>
</g>
</g>
<!-- Node11 -->
<g id="Node000011" class="node">
<title>Node11</title>
<g id="a_Node000011"><a xlink:href="stub__liberror_8cc.html" target="_top" xlink:title=" ">
<polygon fill="white" stroke="#666666" points="1421.5,-30 1310.5,-30 1310.5,0 1421.5,0 1421.5,-30"/>
<text text-anchor="start" x="1318.5" y="-18" font-family="Helvetica,sans-Serif" font-size="10.00">squid/src/tests/stub</text>
<text text-anchor="middle" x="1366" y="-7" font-family="Helvetica,sans-Serif" font-size="10.00">_liberror.cc</text>
</a>
</g>
</g>
<!-- Node1&#45;&gt;Node11 -->
<g id="edge10_Node000001_Node000011" class="edge">
<title>Node1&#45;&gt;Node11</title>
<g id="a_edge10_Node000001_Node000011"><a xlink:title=" ">
<path fill="none" stroke="#63b8ff" d="M822.17,-76.13C929.04,-69.98 1130.82,-55.91 1301,-30 1304.08,-29.53 1307.24,-29.01 1310.41,-28.44"/>
<polygon fill="#63b8ff" stroke="#63b8ff" points="821.92,-72.64 812.13,-76.71 822.31,-79.63 821.92,-72.64"/>
</a>
</g>
</g>
</g>
</svg>
